{
.appVersion = "3133";
.formatVersion = 3;
.storedFormatVersion = 1;
axes = (
{
name = Weight;
tag = wght;
}
);
date = "2016-11-08 10:02:54 +0000";
familyName = "Mell Sans ";
featurePrefixes = (
{
automatic = 1;
code = "languagesystem DFLT dflt;
languagesystem cyrl dflt;
languagesystem latn dflt;
languagesystem latn CAT;
languagesystem latn ROM;
languagesystem latn MOL;
languagesystem latn TRK;
";
name = Languagesystems;
}
);
features = (
{
automatic = 1;
code = "feature locl;
feature frac;
";
tag = aalt;
},
{
automatic = 1;
code = "script latn;
language CAT;
sub  l' periodcentered' l by ldot;
sub  L' periodcentered' L by Ldot;
language ROM;
sub Scedilla by Scommaaccent;
sub scedilla by scommaaccent;
sub Tcedilla by Tcommaaccent;
sub tcedilla by tcommaaccent;
language MOL;
sub Scedilla by Scommaaccent;
sub scedilla by scommaaccent;
sub Tcedilla by Tcommaaccent;
sub tcedilla by tcommaaccent;
language KAZ;
sub i by idotaccent;
language TAT;
sub i by idotaccent;
language TRK;
sub i by idotaccent;
language CRT;
sub i by idotaccent;
language AZE;
sub i by idotaccent;
";
tag = locl;
},
{
automatic = 1;
code = "lookup FRAC {
	sub slash by fraction;
} FRAC;
lookup UP {
	sub [zero one two three four five six seven eight nine] by [zero.numr one.numr two.numr three.numr four.numr five.numr six.numr seven.numr eight.numr nine.numr];
} UP;
lookup DOWN {
	sub fraction [zero.numr one.numr two.numr three.numr four.numr five.numr six.numr seven.numr eight.numr nine.numr]' by [zero.dnom one.dnom two.dnom three.dnom four.dnom five.dnom six.dnom seven.dnom eight.dnom nine.dnom];
	sub [zero.dnom one.dnom two.dnom three.dnom four.dnom five.dnom six.dnom seven.dnom eight.dnom nine.dnom] [zero.numr one.numr two.numr three.numr four.numr five.numr six.numr seven.numr eight.numr nine.numr]' by [zero.dnom one.dnom two.dnom three.dnom four.dnom five.dnom six.dnom seven.dnom eight.dnom nine.dnom];
} DOWN;
";
tag = frac;
}
);
fontMaster = (
{
axesValues = (
100
);
guides = (
{
pos = (284,110);

glyphs = (
{
glyphname = B;
lastChange = "2019-01-09 17:58:59 +0000";
layers = (
{
background = {
shapes = (
{
closed = 1;
nodes = (
(300,356,o),
(243,353,o),
(323,362,c),
(377,379,o),
(413,421,o),
(413,508,cs),
(413,638,o),
(359,703,o),
(221,701,cs),
(151,700,l),
(151,700,o),
(148,356,o),
(148,356,cs)
);
},
{
closed = 1;
nodes = (
(202,619,ls),
(290,619,o),
(326,586,o),
(326,513,cs),
(326,439,o),
(311,396,o),
(226,396,cs),
(131,396,l),
(131,619,l)
);
}
);
};
layerId = "7EBE3D46-E53E-419E-A3EC-596DA2EA1E0D";
name = Regular;
shapes = (
{
closed = 1;
nodes = (
(70,0,l),
(70,13,l),
(133,22,l),
(113,-4,l)
);
},
{
pos = (40,27);
ref = _I_small;
},
{
pos = (40,165);
ref = _I_small;
},
{
pos = (40,328);
ref = _I_small;
},
{
pos = (40,474);
ref = _I_small;
},
{
pos = (88,708);
ref = _curve_B;
scale = (1,-1);
},
{
pos = (48,-4);
ref = _curve_B;
}
);
width = 600;
}
);
unicode = 66;
},
{
glyphname = G;
kernLeft = O;
kernRight = O;
lastChange = "2020-03-07 09:04:14 +0000";
layers = (
{
layerId = "7EBE3D46-E53E-419E-A3EC-596DA2EA1E0D";
name = Regular;
shapes = (
{
closed = 1;
nodes = (
(444,-7,o),
(499,46,o),
(524,71,cs),
(541,88,l),
(469,146,l),
(311,77,l),
(309,-7,l)
);
},
{
pos = (49,24);
ref = _C_curve;
},
{
pos = (199,50);
ref = "_dash-small";
},
{
pos = (398,107);
ref = _I_small;
},
{
pos = (149,50);
ref = "_dash-small";
},
{
pos = (20,18);
ref = _C_lowe;
}
);
width = 611;
}
);
unicode = 71;
},
{
glyphname = K;
lastChange = "2020-03-07 09:07:51 +0000";
layers = (
{
layerId = "7EBE3D46-E53E-419E-A3EC-596DA2EA1E0D";
name = Regular;
shapes = (
{
closed = 1;
nodes = (
(545,700,l),
(392,700,l),
(221,456,l),
(187,407,o),
(165,425,o),
(149,422,cs),
(138,420,o),
(146,288,o),
(148,288,cs),
(175,288,o),
(193,301,o),
(230,245,cs),
(392,2,l),
(545,2,l),
(299,353,l)
);
},
{
pos = (30,0);
ref = _I;
}
);
width = 555;
}
);
unicode = 75;
},
{
glyphname = P;
kernRight = V;
lastChange = "2020-03-07 07:49:52 +0000";
layers = (
{
layerId = "7EBE3D46-E53E-419E-A3EC-596DA2EA1E0D";
name = Regular;
shapes = (
{
closed = 1;
nodes = (
(178,699,o),
(102,696,o),
(72,693,c),
(72,558,l),
(94,576,o),
(189,578,o),
(277,576,c),
(357,573,o),
(388,518,o),
(388,474,c),
(388,410,o),
(351,367,o),
(251,367,c),
(126,367,l),
(74,256,l),
(267,256,l),
(438,256,o),
(512,373,o),
(512,480,c),
(512,616,o),
(422,696,o),
(276,698,c)
);
},
{
pos = (40,505);
ref = _I_small;
},
{
pos = (40,19);
ref = _I_small;
},
{
pos = (40,164);
ref = _I_small;
},
{
pos = (40,327);
ref = _I_small;
},
{
pos = (40,473);
ref = _I_small;
}
);
width = 530;
}
);
unicode = 80;
},
{
glyphname = Q;
lastChange = "2020-03-07 07:48:49 +0000";
layers = (
{
layerId = "7EBE3D46-E53E-419E-A3EC-596DA2EA1E0D";
name = Regular;
shapes = (
{
closed = 1;
nodes = (
(547,-92,l),
(638,-10,l),
(419,240,l),
(349,170,l)
);
},
{
ref = O;
}
);
width = 676;
}
);
unicode = 81;
},
{
glyphname = R;
lastChange = "2019-01-09 13:42:55 +0000";
layers = (
{
layerId = "7EBE3D46-E53E-419E-A3EC-596DA2EA1E0D";
name = Regular;
shapes = (
{
closed = 1;
nodes = (
(176,309,l),
(407,-1,l),
(537,-1,l),
(293,318,l)
);
},
{
pos = (40,503);
ref = _I_small;
},
{
pos = (40,19);
ref = _I_small;
},
{
pos = (40,164);
ref = _I_small;
},
{
pos = (40,327);
ref = _I_small;
},
{
pos = (40,473);
ref = _I_small;
},
{
pos = (48,-18);
ref = _curve_B;
}
);
width = 557;
}
);
unicode = 82;
},
{
glyphname = S;
lastChange = "2020-03-07 09:02:51 +0000";
layers = (
{
layerId = "7EBE3D46-E53E-419E-A3EC-596DA2EA1E0D";
name = Regular;
shapes = (
{
closed = 1;
nodes = (
(439,360,o),
(309,403,cs),
(200,439,o),
(162,472,o),
(162,512,cs),
(162,561,o),
(199,581,o),
(276,581,cs),
(339,581,o),
(396,575,o),
(446,562,c),
(470,657,l),
(424,690,o),
(353,706,o),
(262,706,c),
(123,706,o),
(38,637,o),
(38,535,cs),
(38,409,o),
(117,351,o),
(257,305,c),
(337,279,o),
(382,246,o),
(382,192,cs),
(382,140,o),
(333,113,o),
(278,113,cs),
(208,113,o),
(132,116,o),
(79,134,c),
(54,52,l),
(97,11,o),
(171,-10,o),
(278,-10,cs),
(414,-10,o),
(510,63,o),
(510,183,cs),
(510,284,o)
);
}
);
width = 540;
}
);
unicode = 83;
},
{
glyphname = Y;
kernLeft = T;
kernRight = T;
lastChange = "2019-01-08 16:15:28 +0000";
layers = (
{
layerId = "7EBE3D46-E53E-419E-A3EC-596DA2EA1E0D";
name = Regular;
shapes = (
{
closed = 1;
nodes = (
(631,700,l),
(488,700,l),
(312,408,l),
(151,700,l),
(10,700,l),
(254,284,l),
(254,0,l),
(367,0,l),
(367,284,l)
);
}
);
width = 641;
}
);
unicode = 89;
},
{
glyphname = a;
kernLeft = e;
kernRight = e;
lastChange = "2020-02-20 01:28:52 +0000";
layers = (
{
hints = (
{
horizontal = 1;
place = (553.816, 0);
place = (553.816, 0);
type = Stem;
}
);
layerId = "7EBE3D46-E53E-419E-A3EC-596DA2EA1E0D";
name = Regular;
shapes = (
{
closed = 1;
nodes = (
(158,510,o),
(112,504,o),
(62,463,c),
(89,376,l),
(128,392,o),
(168,394,o),
(216,394,cs),
(283,394,o),
(307,364,o),
(313,309,c),
(232,309,o),
(213,316,o),
(156,303,c),
(92,288,o),
(42,248,o),
(40,155,cs),
(38,50,o),
(103,-5,o),
(179,-5,cs),
(233,-5,o),
(277,10,o),
(318,50,c),
(323,0,l),
(428,0,l),
(428,274,ls),
(428,431,o),
(349,510,o),
(242,510,cs)
);
},
{
closed = 1;
nodes = (
(174,110,o),
(148,128,o),
(147,152,cs),
(146,185,o),
(171,207,o),
(205,215,c),
(234,222,o),
(259,222,o),
(315,222,c),
(315,155,l),
(296,130,o),
(257,110,o),
(207,110,cs)
);
}
);
width = 488;
}
);
unicode = 97;
},
{
glyphname = c;
kernLeft = e;
kernRight = c;
lastChange = "2020-02-15 17:10:19 +0000";
layers = (
{
layerId = "7EBE3D46-E53E-419E-A3EC-596DA2EA1E0D";
name = Regular;
shapes = (
{
closed = 1;
nodes = (
(366,501,o),
(305,512,o),
(251,511,c),
(139,515,o),
(40,418,o),
(40,267,cs),
(40,228,ls),
(40,144,o),
(154,130,o),
(154,238,cs),
(154,258,ls),
(154,339,o),
(210,380,o),
(263,380,cs),
(328,381,o),
(346,377,o),
(388,368,c),
(403,468,l)
);
},
{
pos = (-10,-2);
ref = _curve_cursive;
}
);
width = 470;
}
);
unicode = 99;
},
{
glyphname = eth;
lastChange = "2017-02-21 06:29:50 +0000";
layers = (
{
layerId = "7EBE3D46-E53E-419E-A3EC-596DA2EA1E0D";
name = Regular;
shapes = (
{
closed = 1;
nodes = (
(482.282,739.118,l),
(348.728,764.242,l),
(111.761,499.532,l),
(256.395,479.809,l)
);
},
{
pos = (558,0);
ref = six;
scale = (-1,1);
}
);
width = 558;
}
);
unicode = 240;
},
{
glyphname = e;
kernLeft = e;
kernRight = e;
lastChange = "2020-02-20 00:47:58 +0000";
layers = (
{
layerId = "7EBE3D46-E53E-419E-A3EC-596DA2EA1E0D";
name = Regular;
shapes = (
{
closed = 1;
nodes = (
(195,508,o),
(209,386,o),
(259,386,c),
(301,386,o),
(346,344,o),
(346,288,c),
(108,287,l),
(117,211,l),
(443,211,l),
(448,241,o),
(449,271,o),
(447,301,cs),
(440,410,o),
(366,508,o),
(263,508,c)
);
},
{
pos = (6,0);
ref = _o_curve;
},
{
pos = (-9,-3);
ref = _curve_cursive;
},
{
pos = (-9,-3);
ref = _curve_cursive;
}
);
width = 486;
}
);
unicode = 101;
},
{
glyphname = g;
kernLeft = e;
lastChange = "2020-01-18 15:51:44 +0000";
layers = (
{
layerId = "7EBE3D46-E53E-419E-A3EC-596DA2EA1E0D";
name = Regular;
shapes = (
{
closed = 1;
nodes = (
(480,389,l),
(508,500,l),
(266,500,l),
(220,500,o),
(260,448,o),
(282,399,c)
);
},
{
closed = 1;
nodes = (
(401,-211,o),
(492,-142,o),
(492,-50,c),
(492,31,o),
(426,100,o),
(287,100,c),
(181,100,o),
(171,142,o),
(190,167,c),
(195,188,l),
(129,213,l),
(76,172,o),
(62,70,o),
(141,36,c),
(141,68,l),
(106,60,o),
(40,21,o),
(40,-57,c),
(41,-135,o),
(61,-211,o),
(244,-211,c),
(289,-211,l)
);
},
{
closed = 1;
nodes = (
(265,-101,l),
(183,-101,o),
(154,-90,o),
(153,-50,c),
(154,-7,o),
(187,0,o),
(265,0,c),
(268,0,l),
(344,0,o),
(378,-9,o),
(379,-49,c),
(378,-93,o),
(350,-101,o),
(268,-101,c)
);
},
{
closed = 1;
nodes = (
(474,413,o),
(350,438,o),
(277,440,c),
(278,500,l),
(258,500,l),
(117,500,o),
(54,426,o),
(54,320,c),
(54,325,l),
(58,221,o),
(127,159,o),
(258,159,c),
(262,159,l),
(264,159,o),
(265,159,o),
(267,159,c),
(271,159,l),
(402,159,o),
(474,213,o),
(474,321,c)
);
},
{
closed = 1;
nodes = (
(265,255,l),
(265,255,o),
(265,255,o),
(265,255,c),
(259,255,l),
(194,255,o),
(177,285,o),
(177,321,c),
(177,357,o),
(194,389,o),
(259,389,c),
(265,389,l),
(265,389,o),
(265,389,o),
(265,389,c),
(270,389,l),
(335,389,o),
(351,357,o),
(351,321,c),
(351,285,o),
(335,255,o),
(270,255,c)
);
}
);
width = 538;
}
);
unicode = 103;
},
{
glyphname = j;
kernLeft = c;
kernRight = n;
lastChange = "2020-02-21 18:38:00 +0000";
layers = (
{
layerId = "7EBE3D46-E53E-419E-A3EC-596DA2EA1E0D";
name = Regular;
shapes = (
{
closed = 1;
nodes = (
(-21,-214,o),
(32,-246,o),
(86,-246,cs),
(183,-246,o),
(267,-181,o),
(267,-67,cs),
(267,132,l),
(154,132,l),
(154,-22,ls),
(154,-74,o),
(119,-105,o),
(83,-105,c),
(26,-105,o),
(-3,-97,o),
(-43,-83,c),
(-58,-173,l)
);
},
{
pos = (97,0);
ref = "_i-dotless";
},
{
pos = (58,8);
ref = _dot;
},
{
pos = (-84,87);
ref = _EF_horizontal;
}
);
width = 347;
}
);
unicode = 106;
},
{
glyphname = k;
kernLeft = h;
kernRight = v;
lastChange = "2020-02-20 00:51:19 +0000";
layers = (
{
layerId = "7EBE3D46-E53E-419E-A3EC-596DA2EA1E0D";
name = Regular;
shapes = (
{
closed = 1;
nodes = (
(458,500,l),
(325,500,l),
(213,327,l),
(188,295,o),
(153,304,o),
(153,330,c),
(152,169,l),
(153,201,o),
(191,206,o),
(210,174,c),
(325,0,l),
(458,0,l),
(280,251,l)
);
},
{
closed = 1;
nodes = (
(172,169,l)
);
},
{
pos = (30,0);
ref = _I_dbh;
}
);
width = 488;
}
);
unicode = 107;
},
{
glyphname = n;
kernLeft = n;
kernRight = n;
lastChange = "2020-03-02 17:29:20 +0000";
layers = (
{
layerId = "7EBE3D46-E53E-419E-A3EC-596DA2EA1E0D";
name = Regular;
shapes = (
{
closed = 1;
nodes = (
(163,500,l),
(60,500,l),
(60,380,l),
(164,388,l),
(171,384,l)
);
},
{
pos = (24,0);
ref = _hmn;
},
{
pos = (30,203);
ref = _I_small;
},
{
pos = (30,20);
ref = _I_small;
}
);
width = 538;
}
);
unicode = 110;
},
{
glyphname = r;
kernLeft = n;
kernRight = f;
lastChange = "2020-02-21 18:35:51 +0000";
layers = (
{
layerId = "7EBE3D46-E53E-419E-A3EC-596DA2EA1E0D";
name = Regular;
shapes = (
{
closed = 1;
nodes = (
(402,486,l),
(377,498,o),
(345,503,o),
(317,503,c),
(236,503,o),
(174,441,o),
(159,356,c),
(109,264,l),
(174,161,l),
(174,329,o),
(251,416,o),
(394,374,c)
);
},
{
pos = (3,0);
ref = "_i-dotless";
}
);
width = 432;
}
);
unicode = 114;
},
{
glyphname = s;
kernLeft = e;
kernRight = e;
lastChange = "2020-02-26 06:41:07 +0000";
layers = (
{
layerId = "7EBE3D46-E53E-419E-A3EC-596DA2EA1E0D";
name = Regular;
shapes = (
{
closed = 1;
nodes = (
(259,298,cs),
(195,315,o),
(162,331,o),
(162,355,cs),
(162,383,o),
(194,388,o),
(228,388,c),
(257,389,o),
(323,387,o),
(351,377,c),
(378,467,l),
(326,504,o),
(279,512,o),
(218,512,cs),
(120,512,o),
(54,449,o),
(54,366,cs),
(54,288,o),
(86,241,o),
(197,206,cs),
(259,187,o),
(290,179,o),
(290,150,cs),
(290,122,o),
(270,109,o),
(222,109,cs),
(173,109,o),
(124,109,o),
(78,130,c),
(52,52,l),
(99,9,o),
(132,-5,o),
(221,-5,cs),
(337,-5,o),
(404,57,o),
(404,142,cs),
(404,230,o),
(356,272,o)
);
}
);
width = 434;
}
);
unicode = 115;
},
{
glyphname = germandbls;
kernLeft = h;
kernRight = c;
lastChange = "2017-02-21 06:29:50 +0000";
layers = (
{
layerId = "7EBE3D46-E53E-419E-A3EC-596DA2EA1E0D";
name = Regular;
shapes = (
{
closed = 1;
nodes = (
(537,281.539,o),
(359,320.346,o),
(359,374,c),
(359,424.157,o),
(491,434.151,o),
(491,571,c),
(491,670.439,o),
(426.134,733,o),
(293,733,c),
(162.391,733,o),
(60,659.234,o),
(60,504,c),
(60,-20,l),
(178,-20,l),
(178,485,l),
(178,522.754,o),
(179.355,539.01,o),
(184.575,547.71,c),
(184.742,548.287,l),
(187.033,552.412,o),
(193.454,561.241,o),
(206.071,573.858,c),
(220.438,589.071,o),
(251.197,600,o),
(285,600,c),
(346.708,600,o),
(373.549,585.782,o),
(373.003,564.513,c),
(373,564,l),
(373,505.988,o),
(242,500.894,o),
(242,370,c),
(242,292.69,o),
(293.65,249.256,o),
(334.118,219.825,c),
(369.389,194.726,o),
(394.652,179.917,o),
(404.753,155.385,c),
(404.586,156.255,l),
(421.656,108.602,o),
(396.908,102.083,o),
(325.566,98.981,c),
(300.004,99,o),
(267.241,102.971,o),
(255.008,108.323,c),
(241,90,l),
(241,-18.27,l),
(256.927,-21.189,o),
(299.159,-28,o),
(340,-28,c),
(483.546,-28,o),
(537,57.622,o),
(537,139,c)
);
}
);
width = 597;
}
);
unicode = 223;
},
{
glyphname = t;
kernLeft = c;
kernRight = c;
lastChange = "2020-02-08 19:27:35 +0000";
layers = (
{
hints = (
{
horizontal = 1;
place = (420, 80);
place = (420, 80);
type = Stem;
}
);
layerId = "7EBE3D46-E53E-419E-A3EC-596DA2EA1E0D";
name = Regular;
shapes = (
{
closed = 1;
nodes = (
(27,431,l),
(45,389,l),
(146,389,l),
(146,202,l),
(146,42,o),
(259,100,o),
(259,202,c),
(259,389,l),
(416,389,l),
(416,500,l),
(259,500,l),
(259,610,l),
(215,626,l)
);
},
{
closed = 1;
nodes = (
(248,585,o),
(259,596,o),
(259,610,cs),
(259,623,o),
(248,635,o),
(234,635,cs),
(220,635,o),
(209,623,o),
(209,610,cs),
(209,596,o),
(220,585,o),
(234,585,cs)
);
},
{
closed = 1;
nodes = (
(59,389,o),
(70,400,o),
(70,414,cs),
(70,427,o),
(59,439,o),
(45,439,cs),
(31,439,o),
(20,427,o),
(20,414,cs),
(20,400,o),
(31,389,o),
(45,389,cs)
);
},
{
pos = (53,1);
ref = _curve_lower;
}
);
width = 506;
}
);
unicode = 116;
},
{
glyphname = v;
kernLeft = v;
kernRight = v;
lastChange = "2020-02-20 00:46:52 +0000";
layers = (
{
layerId = "7EBE3D46-E53E-419E-A3EC-596DA2EA1E0D";
name = Regular;
shapes = (
{
closed = 1;
nodes = (
(266,-8,o),
(277,3,o),
(277,17,cs),
(277,30,o),
(266,42,o),
(252,42,cs),
(238,42,o),
(227,30,o),
(227,17,cs),
(227,3,o),
(238,-8,o),
(252,-8,cs)
);
},
{
pos = (-70,-20);
ref = _y;
},
{
pos = (574,-20);
ref = _y;
scale = (-1,1);
}
);
width = 504;
}
);
unicode = 118;
},
{
glyphname = w;
kernLeft = v;
kernRight = v;
lastChange = "2020-01-20 20:11:12 +0000";
layers = (
{
layerId = "7EBE3D46-E53E-419E-A3EC-596DA2EA1E0D";
name = Regular;
shapes = (
{
closed = 1;
nodes = (
(242,-9,o),
(253,2,o),
(253,16,cs),
(253,29,o),
(242,41,o),
(228,41,cs),
(214,41,o),
(203,29,o),
(203,16,cs),
(203,2,o),
(214,-9,o),
(228,-9,cs)
);
},
{
closed = 1;
nodes = (
(469,-9,o),
(480,2,o),
(480,16,cs),
(480,29,o),
(469,41,o),
(455,41,cs),
(441,41,o),
(430,29,o),
(430,16,cs),
(430,2,o),
(441,-9,o),
(455,-9,cs)
);
},
{
closed = 1;
nodes = (
(356,457,o),
(367,468,o),
(367,482,cs),
(367,495,o),
(356,507,o),
(342,507,cs),
(328,507,o),
(317,495,o),
(317,482,cs),
(317,468,o),
(328,457,o),
(342,457,cs)
);
},
{
pos = (692,-2);
ref = _w_small_slash;
scale = (-1,1);
},
{
pos = (-10,-2);
ref = _w_small_slash;
},
{
pos = (68,-2);
ref = _w_small_slash_2;
},
{
pos = (615,-2);
ref = _w_small_slash_2;
scale = (-1,1);
}
);
width = 682;
}
);
unicode = 119;
},
{
glyphname = y;
kernLeft = v;
kernRight = v;
lastChange = "2020-02-21 18:38:27 +0000";
layers = (
{
layerId = "7EBE3D46-E53E-419E-A3EC-596DA2EA1E0D";
name = Regular;
shapes = (
{
closed = 1;
nodes = (
(377,500,l),
(268,151,l),
(158,500,l),
(29,500,l),
(186,59,l),
(192,43,o),
(208,11,o),
(224,8,c),
(188,-79,ls),
(172,-117,o),
(151,-141,o),
(99,-147,c),
(121,-232,l),
(188,-264,o),
(270,-211,o),
(302,-115,cs),
(506,500,l)
);
}
);
width = 526;
}
);
unicode = 121;
},
{
glyphname = s.001;
kernLeft = e;
kernRight = e;
lastChange = "2020-02-20 01:15:47 +0000";
layers = (
{
layerId = "7EBE3D46-E53E-419E-A3EC-596DA2EA1E0D";
name = Regular;
shapes = (
{
closed = 1;
nodes = (
(239,298,cs),
(164,315,o),
(139,331,o),
(139,355,cs),
(139,383,o),
(194,388,o),
(238,388,c),
(267,389,o),
(320,382,o),
(348,372,c),
(375,462,l),
(323,499,o),
(289,512,o),
(218,512,cs),
(100,512,o),
(44,449,o),
(44,366,cs),
(44,288,o),
(76,241,o),
(207,206,cs),
(269,189,o),
(303,179,o),
(303,150,cs),
(303,122,o),
(260,109,o),
(212,109,cs),
(163,109,o),
(114,116,o),
(68,137,c),
(42,59,l),
(89,16,o),
(122,-5,o),
(221,-5,cs),
(337,-5,o),
(404,72,o),
(404,147,cs),
(404,235,o),
(357,272,o)
);
}
);
width = 434;
}
);
},
{
glyphname = y.001;
kernLeft = v;
kernRight = v;
lastChange = "2019-01-10 16:13:08 +0000";
layers = (
{
layerId = "7EBE3D46-E53E-419E-A3EC-596DA2EA1E0D";
name = Regular;
shapes = (
{
closed = 1;
nodes = (
(15,500,l),
(178,0,l),
(248,0,l),
(274.301,124.841,l),
(247.954,123.291,l),
(140,500,l)
);
},
{
closed = 1;
nodes = (
(462,500,l),
(337,500,l),
(188.42,-42.266,l),
(171.713,-98.562,o),
(131.453,-103.266,o),
(88.369,-82.571,c),
(101.674,-218.575,l),
(183.831,-234.481,o),
(249.468,-191.619,o),
(279.51,-99.182,c)
);
}
);
width = 478;
}
);
},
{
glyphname = a.002;
kernLeft = e;
kernRight = e;
lastChange = "2020-02-15 16:45:22 +0000";
layers = (
{
hints = (
{
horizontal = 1;
place = (553.816, 0);
place = (553.816, 0);
type = Stem;
}
);
layerId = "7EBE3D46-E53E-419E-A3EC-596DA2EA1E0D";
name = Regular;
shapes = (
{
closed = 1;
nodes = (
(161,510,o),
(115,497,o),
(75,463,c),
(102,373,l),
(151,388,o),
(176,388,o),
(225,388,cs),
(282,388,o),
(331,359,o),
(332,294,c),
(301,307,o),
(274,305,o),
(184,304,cs),
(119,303,o),
(55,268,o),
(53,165,cs),
(51,50,o),
(116,-1,o),
(192,-1,cs),
(256,-1,o),
(299,20,o),
(330,60,c),
(336,0,l),
(441,0,l),
(441,294,ls),
(441,431,o),
(362,510,o),
(255,510,cs)
);
},
{
closed = 1;
nodes = (
(197,113,o),
(161,124,o),
(160,170,cs),
(159,213,o),
(206,220,o),
(240,220,c),
(298,220,o),
(302,219,o),
(328,208,c),
(328,158,l),
(309,133,o),
(270,113,o),
(240,113,cs)
);
}
);
width = 501;
}
);
},
{
glyphname = a_old;
kernLeft = e;
kernRight = e;
lastChange = "2020-03-07 09:29:34 +0000";
layers = (
{
hints = (
{
horizontal = 1;
place = (553.816, 0);
place = (553.816, 0);
type = Stem;
}
);
layerId = "7EBE3D46-E53E-419E-A3EC-596DA2EA1E0D";
name = Regular;
shapes = (
{
closed = 1;
nodes = (
(161,510,o),
(115,487,o),
(75,453,c),
(102,363,l),
(151,388,o),
(177,390,o),
(225,398,cs),
(282,408,o),
(331,379,o),
(332,334,c),
(301,327,o),
(274,326,o),
(184,305,cs),
(120,290,o),
(55,258,o),
(53,155,cs),
(51,40,o),
(116,-1,o),
(192,-1,cs),
(256,-1,o),
(299,20,o),
(330,60,c),
(336,0,l),
(441,0,l),
(441,294,ls),
(441,431,o),
(362,510,o),
(255,510,cs)
);
},
{
closed = 1;
nodes = (
(197,113,o),
(161,114,o),
(160,160,cs),
(159,203,o),
(206,212,o),
(240,224,c),
(298,241,o),
(302,241,o),
(328,248,c),
(328,158,l),
(309,133,o),
(270,113,o),
(240,113,cs)
);
}
);
width = 501;
}
);
},
{
glyphname = a_pbdq;
lastChange = "2020-02-20 19:22:11 +0000";
layers = (
{
layerId = "7EBE3D46-E53E-419E-A3EC-596DA2EA1E0D";
name = Regular;
shapes = (
{
closed = 1;
nodes = (
(238,511,o),
(192,477,o),
(173,429,c),
(173,500,l),
(60,500,l),
(60,0,l),
(173,0,l),
(173,41,l),
(194,11,o),
(238,-11,o),
(293,-11,cs),
(402,-11,o),
(481,100,o),
(481,232,cs),
(482,266,l),
(480,405,o),
(412,511,o),
(302,511,cs)
);
},
{
closed = 1;
nodes = (
(368,163,o),
(336,106,o),
(255,105,cs),
(198,104,o),
(167,135,o),
(166,197,cs),
(164,324,o),
(195,393,o),
(274,393,cs),
(341,393,o),
(370,347,o),
(369,251,cs)
);
}
);
width = 522;
}
);
},
{
glyphname = "De-cy";
lastChange = "2020-01-25 07:17:10 +0000";
layers = (
{
layerId = "7EBE3D46-E53E-419E-A3EC-596DA2EA1E0D";
name = Regular;
shapes = (
{
closed = 1;
nodes = (
(21,40,l),
(34,36,o),
(72,49,o),
(74,49,c),
(131,49,o),
(240,40,o),
(240,186,c),
(240,375,l),
(127,375,l),
(127,178,l),
(127,132,o),
(84,109,o),
(15,110,c),
(14,56,l)
);
},
{
pos = (97,328);
ref = _I_small;
},
{
pos = (97,474);
ref = _I_small;
},
{
pos = (417,0);
ref = _I;
},
{
pos = (260,-303);
ref = _EF_horizontal;
},
{
pos = (-112,-303);
ref = _EF_horizontal;
},
{
pos = (3,288);
ref = _EF_horizontal;
},
{
pos = (140,288);
ref = _EF_horizontal;
},
{
pos = (66,-303);
ref = _EF_horizontal;
},
{
pos = (672,0);
ref = _D_cyr;
scale = (-1,1);
},
{
pos = (-43,0);
ref = _D_cyr;
}
);
width = 629;
}
);
unicode = 1044;
},
{
glyphname = "be-cy";
kernLeft = e;
kernRight = e;
lastChange = "2019-01-10 16:16:48 +0000";
layers = (
{
layerId = "7EBE3D46-E53E-419E-A3EC-596DA2EA1E0D";
name = Regular;
shapes = (
{
closed = 1;
nodes = (
(181.961,404.232,l),
(192.003,513.657,o),
(196.744,636.638,o),
(472.12,590.439,c),
(442.344,716.988,l),
(110.66,771.298,o),
(61,557.476,o),
(61,355,c),
(61,328.224,o),
(60,261.224,o),
(60,242,c),
(69.426,222.033,l),
(165.3,216.523,l)
);
},
{
closed = 1;
nodes = (
(291,406,l),
(283,516,l),
(195,516,o),
(121,426,o),
(121,277,c),
(121,230,o),
(173,173,o),
(173,270,c),
(173,338,o),
(200,396,o),
(275,396,c),
(277,396,o),
(279,396,o),
(281,396,c)
);
},
{
angle = 180;
pos = (532,495);
ref = _o_curve;
},
{
pos = (26,495);
ref = _o_curve;
scale = (1,-1);
},
{
pos = (532,0);
ref = _o_curve;
scale = (-1,1);
}
);
width = 558;
}
);
unicode = 1073;
},
{
glyphname = "che-cy";
kernLeft = e;
kernRight = n;
lastChange = "2017-02-21 06:29:50 +0000";
layers = (
{
layerId = "7EBE3D46-E53E-419E-A3EC-596DA2EA1E0D";
name = Regular;
shapes = (
{
closed = 1;
nodes = (
(173,427.21,o),
(60,449.051,o),
(60,335,c),
(60,209.787,o),
(127.874,141.773,o),
(269.723,152.052,c),
(432.019,164.035,l),
(409.696,284.582,l),
(287.134,273.925,l),
(202.203,266.2,o),
(173,280.564,o),
(173,336,c)
);
},
{
pos = (325,0);
ref = _I_small;
},
{
pos = (325,165);
ref = _I_small;
},
{
pos = (325,329);
ref = _I_small;
},
{
pos = (30,332);
ref = _I_small;
}
);
width = 528;
}
);
unicode = 1095;
},
{
glyphname = "ia-cy";
kernLeft = e;
kernRight = n;
lastChange = "2020-03-07 09:27:33 +0000";
layers = (
{
layerId = "7EBE3D46-E53E-419E-A3EC-596DA2EA1E0D";
name = Regular;
shapes = (
{
closed = 1;
nodes = (
(186,27,o),
(209,58,o),
(234,101,c),
(259,145,o),
(305,145,o),
(338,147,c),
(346,148,o),
(409.692,193.574,o),
(348.499,209.366,c),
(239,205,l),
(155,197,o),
(99,142,o),
(49,0,c),
(172,0,l)
);
},
{
pos = (269,0);
ref = "_i-dotless";
},
{
pos = (51,-117);
ref = _ya_cyr;
}
);
width = 499;
}
);
unicode = 1103;
},
{
glyphname = one;
lastChange = "2018-12-26 09:41:19 +0000";
layers = (
{
layerId = "7EBE3D46-E53E-419E-A3EC-596DA2EA1E0D";
name = Regular;
shapes = (
{
closed = 1;
nodes = (
(30,556.866,l),
(252,604.124,l),
(252,720,l),
(201.965,720,l),
(30,677.54,l)
);
},
{
pos = (109,23);
ref = _I_small;
},
{
pos = (109,168);
ref = _I_small;
},
{
pos = (109,331);
ref = _I_small;
},
{
pos = (109,477);
ref = _I_small;
},
{
pos = (-9,-219);
ref = "_dash-small";
},
{
pos = (-92,-219);
ref = "_dash-small";
}
);
width = 363;
}
);
unicode = 49;
},
{
glyphname = two;
lastChange = "2020-03-07 09:20:02 +0000";
layers = (
{
layerId = "7EBE3D46-E53E-419E-A3EC-596DA2EA1E0D";
name = Regular;
shapes = (
{
closed = 1;
nodes = (
(53,50,o),
(42,39,o),
(42,25,cs),
(42,12,o),
(53,0,o),
(67,0,cs),
(81,0,o),
(92,12,o),
(92,25,cs),
(92,39,o),
(81,50,o),
(67,50,cs)
);
},
{
closed = 1;
nodes = (
(471,655,o),
(393,736,o),
(247,736,cs),
(199,736,o),
(139,726,o),
(80,682,c),
(95,585,l),
(134,595,o),
(185,602,o),
(246,602,cs),
(329,602,o),
(349,567,o),
(349,530,cs),
(349,472,o),
(303,433,o),
(46,38,c),
(67,0,l),
(149,0,l),
(409,388,o),
(471,441,o),
(471,538,cs)
);
},
{
angle = 180;
pos = (473,413);
ref = _EF_horizontal;
},
{
angle = 180;
pos = (586,413);
ref = _EF_horizontal;
}
);
width = 522;
}
);
unicode = 50;
},
{
glyphname = five;
lastChange = "2020-03-07 09:10:06 +0000";
layers = (
{
layerId = "7EBE3D46-E53E-419E-A3EC-596DA2EA1E0D";
name = Regular;
shapes = (
{
closed = 1;
nodes = (
(303,227,l),
(303,76.661,o),
(417,68.188,o),
(417,252,c),
(417,376.793,o),
(349.82,491,o),
(211,491,c),
(119.792,491,o),
(87.812,436.349,o),
(56,420.382,c),
(56,366,l),
(95,345,l),
(106,354,o),
(136,366,o),
(200,366,c),
(268.155,366,o),
(303,323.159,o),
(303,254,c)
);
},
{
closed = 1;
nodes = (
(95,341,o),
(106,352,o),
(106,366,cs),
(106,379,o),
(95,391,o),
(81,391,cs),
(67,391,o),
(56,379,o),
(56,366,cs),
(56,352,o),
(67,341,o),
(81,341,cs)
);
},
{
pos = (26,385);
ref = _I_small;
},
{
pos = (26,532);
ref = _I_small;
},
{
pos = (25,307);
ref = _EF_horizontal;
},
{
pos = (-54,307);
ref = _EF_horizontal;
},
{
pos = (467,0);
ref = _curve_cursive;
scale = (-1,1);
}
);
width = 447;
}
);
unicode = 53;
},
{
glyphname = six;
lastChange = "2020-03-07 09:19:18 +0000";
layers = (
{
layerId = "7EBE3D46-E53E-419E-A3EC-596DA2EA1E0D";
name = Regular;
shapes = (
{
closed = 1;
nodes = (
(133,295,l),
(133,417.02,o),
(153.634,572.223,o),
(283.292,576.009,c),
(319.104,577.128,o),
(334,577,o),
(361,569,c),
(393,673,l),
(357,701,o),
(331.306,713,o),
(276,713,c),
(87.056,713,o),
(31,483,o),
(31,325,c),
(31,242,l),
(133,235,l)
);
},
{
closed = 1;
nodes = (
(165,461,o),
(91,389,o),
(91,241,cs),
(91,194,o),
(143,137,o),
(143,234,cs),
(143,293,o),
(176,353,o),
(251,353,cs),
(316,353,o),
(355,290,o),
(355,233,cs),
(355,203,o),
(467,212,o),
(467,242,c),
(465,367,o),
(386,461,o),
(254,461,cs)
);
},
{
angle = 180;
pos = (502,495);
ref = _o_curve;
},
{
pos = (-4,495);
ref = _o_curve;
scale = (1,-1);
}
);
width = 498;
}
);
unicode = 54;
},
{
glyphname = eight;
lastChange = "2020-03-07 09:18:21 +0000";
layers = (
{
layerId = "7EBE3D46-E53E-419E-A3EC-596DA2EA1E0D";
name = Regular;
shapes = (
{
closed = 1;
nodes = (
(50,474.787,o),
(70,414,o),
(137,377,c),
(64,326,o),
(40,270,o),
(40,189,c),
(40,63.055,o),
(118.281,-32,o),
(259,-32,c),
(391.596,-32,o),
(480,70.769,o),
(480,189,c),
(480,271.898,o),
(431,334,o),
(374,368,c),
(440,402,o),
(470,466.91,o),
(470,535,c),
(470,657.907,o),
(376.691,729,o),
(259,729,c),
(131.04,729,o),
(50,656.965,o),
(50,535,c)
);
},
{
closed = 1;
nodes = (
(156,282.836,o),
(203.488,312,o),
(260,312,c),
(314.445,312,o),
(362,280.175,o),
(362,207,c),
(362,199,l),
(362,146.375,o),
(334.835,98,o),
(260,98,c),
(177.873,98,o),
(156,144.297,o),
(156,199,c)
);
},
{
closed = 1;
nodes = (
(166,550,o),
(196.399,598,o),
(260,598,c),
(325,598,o),
(352,551,o),
(352,509,c),
(352,468,o),
(314.842,424,o),
(260,424,c),
(259,424,l),
(202.121,424,o),
(166,466,o),
(166,509,c)
);
}
);
width = 520;
}
);
unicode = 56;
},
{
glyphname = asterisk;
lastChange = "2017-02-21 06:29:50 +0000";
layers = (
{
layerId = "7EBE3D46-E53E-419E-A3EC-596DA2EA1E0D";
name = Regular;
shapes = (
{
closed = 1;
nodes = (
(296.449,532.289,l),
(368.549,572.794,l),
(322.076,654.523,l),
(245,607.371,l),
(245,703,l),
(168,703,l),
(168,605.728,l),
(91.382,654.983,l),
(52.036,573.011,l),
(122.455,533,l),
(50.804,492.289,l),
(94.791,412.462,l),
(173,458.842,l),
(173,363,l),
(250,363,l),
(250,458.763,l),
(327.838,412.061,l),
(365.753,494.486,l)
);
}
);
width = 419;
}
);
unicode = 42;
},
{
glyphname = bullet;
lastChange = "2017-02-21 06:29:50 +0000";
layers = (
{
layerId = "7EBE3D46-E53E-419E-A3EC-596DA2EA1E0D";
name = Regular;
shapes = (
{
closed = 1;
nodes = (
(301.072,170,o),
(375,239.379,o),
(375,326,c),
(375,414.621,o),
(301.072,484,o),
(218,484,c),
(135.992,484,o),
(60,414.814,o),
(60,326,c),
(60,239.186,o),
(135.992,170,o),
(218,170,c)
);
}
);
width = 435;
}
);
unicode = 8226;
},
{
glyphname = numbersign;
lastChange = "2017-02-21 06:29:50 +0000";
layers = (
{
layerId = "7EBE3D46-E53E-419E-A3EC-596DA2EA1E0D";
name = Regular;
shapes = (
{
closed = 1;
nodes = (
(616.157,307,l),
(514.191,307,l),
(527.119,434,l),
(635.55,434,l),
(645.627,565,l),
(541.075,565,l),
(556.075,720,l),
(445.684,720,l),
(431.684,565,l),
(324.075,565,l),
(339.075,720,l),
(229.684,720,l),
(215.684,565,l),
(95.45,565,l),
(85.373,434,l),
(200.947,434,l),
(188.779,307,l),
(67.267,307,l),
(58.6,177,l),
(175.816,177,l),
(155.816,-20,l),
(265.123,-20,l),
(285.123,177,l),
(391.816,177,l),
(371.816,-20,l),
(481.123,-20,l),
(501.123,177,l),
(608.935,177,l)
);
},
{
closed = 1;
nodes = (
(298.191,307,l),
(311.119,434,l),
(417.809,434,l),
(404.881,307,l)
);
}
);
width = 704;
}
);
unicode = 35;
},
{
glyphname = question;
lastChange = "2018-12-31 15:11:51 +0000";
layers = (
{
layerId = "7EBE3D46-E53E-419E-A3EC-596DA2EA1E0D";
name = Regular;
shapes = (
{
closed = 1;
nodes = (
(323,485,o),
(306,453,o),
(216,369,cs),
(160,317,o),
(160,268,o),
(160,205,c),
(285,205,l),
(285,268,o),
(295,291,o),
(315,311,cs),
(425,426,o),
(455,448,o),
(455,530,cs),
(455,636,o),
(386,718,o),
(241,718,cs),
(195,718,o),
(129,709,o),
(77,673,c),
(95,553,l),
(136,574,o),
(184,594,o),
(240,594,cs),
(309,594,o),
(323,550,o),
(323,522,cs)
);
},
{
pos = (104,-609);
ref = _dot;
}
);
width = 518;
}
);
unicode = 63;
},
{
glyphname = braceleft;
lastChange = "2017-02-21 06:29:50 +0000";
layers = (
{
layerId = "7EBE3D46-E53E-419E-A3EC-596DA2EA1E0D";
name = Regular;
shapes = (
{
closed = 1;
nodes = (
(449,-85,l),
(410,-85,l),
(352.045,-85,o),
(323.97,-65.675,o),
(319,-24.077,c),
(319,153,l),
(319,244.717,o),
(275.956,298.83,o),
(205.866,304.925,c),
(206.574,265.249,l),
(276.175,276.345,o),
(318,330.472,o),
(318,420,c),
(318,541.931,l),
(322.95,582.198,o),
(351.097,601,o),
(410,601,c),
(449,601,l),
(449,733,l),
(393,733,l),
(254.845,733,o),
(197,652.017,o),
(197,533,c),
(197,429,l),
(197,373.57,o),
(180.619,351,o),
(91,351,c),
(60,351,l),
(60,221,l),
(91,221,l),
(176.747,221,o),
(197,193.017,o),
(197,141,c),
(197,-17,l),
(197,-147.532,o),
(267.898,-215,o),
(393,-215,c),
(449,-215,l)
);
}
);
width = 509;
}
);
unicode = 123;
},
{
glyphname = braceright;
lastChange = "2017-02-24 15:41:04 +0000";
layers = (
{
layerId = "7EBE3D46-E53E-419E-A3EC-596DA2EA1E0D";
name = Regular;
shapes = (
{
closed = 1;
nodes = (
(116,-214,l),
(241.102,-214,o),
(312,-146.532,o),
(312,-16,c),
(312,142,l),
(312,194.017,o),
(332.253,222,o),
(418,222,c),
(449,222,l),
(449,352,l),
(418,352,l),
(328.381,352,o),
(312,374.57,o),
(312,430,c),
(312,534,l),
(312,653.017,o),
(254.155,734,o),
(116,734,c),
(60,734,l),
(60,602,l),
(99,602,l),
(157.903,602,o),
(186.05,583.198,o),
(191,542.931,c),
(191,421,l),
(191,331.472,o),
(232.825,277.345,o),
(302.426,266.249,c),
(303.134,305.925,l),
(233.044,299.83,o),
(190,245.717,o),
(190,154,c),
(190,-23.077,l),
(185.03,-64.675,o),
(156.955,-84,o),
(99,-84,c),
(60,-84,l),
(60,-214,l)
);
}
);
width = 506;
}
);
unicode = 125;
},
{
glyphname = currency;
lastChange = "2017-02-21 06:29:50 +0000";
layers = (
{
layerId = "7EBE3D46-E53E-419E-A3EC-596DA2EA1E0D";
name = Regular;
shapes = (
{
closed = 1;
nodes = (
(142.047,599.211,l),
(48.895,507.353,l),
(131.269,422.811,l),
(134.715,431.428,l),
(128.216,415.739,o),
(123,392.267,o),
(123,369,c),
(123,346.733,o),
(128.158,323.522,o),
(134.68,306.751,c),
(134.513,307.675,l),
(134.613,307.375,o),
(136.74,296.047,o),
(138.929,293.858,c),
(138.882,322.047,l),
(50.783,232.758,l),
(144.002,140.834,l),
(222.86,218.681,l),
(242.495,211.62,o),
(260.397,209,o),
(279,209,c),
(298.524,209,o),
(316.485,211.618,o),
(336.115,218.672,c),
(419,135.787,l),
(512.325,229.111,l),
(430.769,309.647,l),
(425.202,302.996,o),
(422.002,299.624,o),
(420.3,298.2,c),
(429.854,315.155,o),
(437,343.134,o),
(437,369,c),
(437,397.055,o),
(429.209,426.34,o),
(419.396,441.584,c),
(437.607,432.692,o),
(429.629,420.575,o),
(420.944,437.944,c),
(419.113,414.943,l),
(516.23,513.23,l),
(422.976,605.189,l),
(347,529.213,l),
(347,514.502,l),
(322.729,526.386,o),
(301.898,530,o),
(279,530,c),
(259.604,530,o),
(240.904,527.141,o),
(219.935,518.148,c),
(221.022,519.236,l)
);
},
{
closed = 1;
nodes = (
(321.81,418,o),
(347.691,382.07,o),
(332.938,350.458,c),
(332.769,349.692,l),
(327.276,336.509,o),
(305.284,321,o),
(279,321,c),
(260.27,321,o),
(244.65,325.723,o),
(237.328,333.609,c),
(237.071,334.142,l),
(223.633,347.58,o),
(221,355.041,o),
(221,369,c),
(221,374.733,o),
(221.574,377.315,o),
(225.944,386.056,c),
(226.138,386.877,l),
(233.521,403.489,o),
(253.757,418,o),
(279,418,c)
);
}
);
width = 565;
}
);
unicode = 164;
},
{
glyphname = infinity;
lastChange = "2017-02-21 06:29:50 +0000";
layers = (
{
layerId = "7EBE3D46-E53E-419E-A3EC-596DA2EA1E0D";
name = Regular;
shapes = (
{
closed = 1;
nodes = (
(334.442,136,o),
(400.952,167.9,o),
(433.52,217.443,c),
(458.985,170.021,o),
(494.602,132.916,o),
(587.902,132,c),
(725.606,130.988,o),
(809.915,229.718,o),
(811,358.832,c),
(812.087,489.374,o),
(720.497,592,o),
(591,592,c),
(527.831,592,o),
(466.154,556.154,o),
(433.372,513.376,c),
(402.924,557.712,o),
(341.457,592,o),
(275,592,c),
(143.244,592,o),
(61.084,490.965,o),
(60,364.171,c),
(58.916,226.467,o),
(141.565,136,o),
(273,136,c)
);
},
{
closed = 1;
nodes = (
(515.385,268.956,o),
(477.195,308.829,o),
(477.999,362.702,c),
(478,416.294,o),
(518.124,454,o),
(583,454,c),
(591,454,l),
(659.954,453.042,o),
(701,416.017,o),
(701,361,c),
(700.198,306.716,o),
(658.845,267.043,o),
(589.137,267.998,c)
);
},
{
closed = 1;
nodes = (
(200.052,270,o),
(170.171,309.214,o),
(170.999,364.702,c),
(171,419.823,o),
(202.685,456.947,o),
(267.855,456.002,c),
(275,456,l),
(344.924,456,o),
(386,418.162,o),
(386,363,c),
(386,362,l),
(386,356,l),
(385.223,307.287,o),
(343.011,270,o),
(273,270,c)
);
}
);
width = 871;
}
);
unicode = 8734;
},
{
glyphname = percent;
lastChange = "2017-02-21 06:29:50 +0000";
layers = (
{
layerId = "7EBE3D46-E53E-419E-A3EC-596DA2EA1E0D";
name = Regular;
shapes = (
{
closed = 1;
nodes = (
(542.366,720,l),
(116,32.116,l),
(116,-19,l),
(212.612,-19,l),
(641,667.845,l),
(641,720,l)
);
},
{
pos = (390,-251);
ref = _percent;
},
{
pos = (69,192);
ref = _percent;
}
);
width = 696;
}
);
unicode = 37;
},
{
glyphname = radical;
lastChange = "2017-02-21 06:29:50 +0000";
layers = (
{
layerId = "7EBE3D46-E53E-419E-A3EC-596DA2EA1E0D";
name = Regular;
shapes = (
{
closed = 1;
nodes = (
(60,390.251,l),
(224.042,-106,l),
(282.263,-106,l),
(315.457,3.415,l),
(166.928,449,l),
(60,449,l)
);
},
{
pos = (324,308);
ref = _EF_horizontal;
},
{
pos = (595,1);
ref = _backslash;
scale = (-1,1);
}
);
width = 730;
}
);
unicode = 8730;
},
{
glyphname = summation;
lastChange = "2017-02-27 18:43:29 +0000";
layers = (
{
layerId = "7EBE3D46-E53E-419E-A3EC-596DA2EA1E0D";
name = Regular;
shapes = (
{
closed = 1;
nodes = (
(362.731,352.262,l),
(342.278,320.693,l),
(342.723,384.275,l)
);
},
{
pos = (149,313);
ref = _EF_horizontal;
},
{
pos = (-1,313);
ref = _EF_horizontal;
},
{
pos = (625,8);
ref = _X;
scale = (-1,1);
},
{
pos = (149,392);
ref = _EF_horizontal;
scale = (1,-1);
},
{
pos = (-1,392);
ref = _EF_horizontal;
scale = (1,-1);
},
{
angle = 180;
pos = (625,697);
ref = _X;
}
);
width = 555;
}
);
unicode = 8721;
},
{
glyphname = at;
lastChange = "2017-02-21 06:29:50 +0000";
layers = (
{
layerId = "7EBE3D46-E53E-419E-A3EC-596DA2EA1E0D";
name = Regular;
shapes = (
{
closed = 1;
nodes = (
(573.726,73,l),
(687.058,73,l),
(734.274,521,l),
(620.942,521,l)
);
},
{
closed = 1;
nodes = (
(636.948,470.588,l),
(603.484,520.629,o),
(551.349,534,o),
(504,534,c),
(347.281,534,o),
(268.815,404.313,o),
(256.055,283.094,c),
(249.05,212.99,l),
(236.108,77.052,o),
(312.92,-28,o),
(429,-28,c),
(515.289,-28,o),
(568.977,20.488,o),
(596.342,79.112,c)
);
},
{
closed = 1;
nodes = (
(366.952,269.049,l),
(374.16,342.021,o),
(407.609,409,o),
(495,409,c),
(563.558,409,o),
(596.796,389.03,o),
(607.69,380.616,c),
(597.059,283.169,l),
(589.271,214.086,o),
(569.884,96,o),
(438,96,c),
(377.153,96,o),
(353.933,149.24,o),
(361.932,217.678,c)
);
},
{
closed = 1;
nodes = (
(576.628,117,l),
(563.145,-102.955,o),
(770.508,-96.356,o),
(844.099,5.27,c),
(888.902,67.632,o),
(923,152.328,o),
(923,268,c),
(923,573.468,o),
(725.554,710,o),
(491,710,c),
(258.209,710,o),
(80,565.535,o),
(80,268,c),
(80,-29.579,o),
(258.221,-173,o),
(491,-173,c),
(535.219,-173,o),
(579.537,-166.56,o),
(623.122,-152.665,c),
(574.854,-31.995,l),
(546.566,-39.344,o),
(522.41,-44,o),
(490,-44,c),
(304.117,-44,o),
(193,61.567,o),
(193,273,c),
(193,485.963,o),
(303.965,584,o),
(490,584,c),
(676.305,584,o),
(807,485.01,o),
(807,273,c),
(807,216.712,o),
(797.193,163.218,o),
(773.056,114.944,c),
(773.429,115.797,o),
(773.724,116.395,o),
(774.009,117,c)
);
}
);
width = 983;
}
);
unicode = 64;
},
{
glyphname = ampersand;
lastChange = "2017-02-21 06:29:50 +0000";
layers = (
{
layerId = "7EBE3D46-E53E-419E-A3EC-596DA2EA1E0D";
name = Regular;
shapes = (
{
closed = 1;
nodes = (
(174,244.536,o),
(197.848,274.958,o),
(243.991,306.907,c),
(388.108,123.004,l),
(361.711,102.162,o),
(330.367,91,o),
(292,91,c),
(216.263,91,o),
(174,133.275,o),
(174,194,c)
);
},
{
closed = 1;
nodes = (
(379,512.87,o),
(341.954,485.138,o),
(281.247,452.824,c),
(273.894,462.279,l),
(241.324,503.338,o),
(232,523.419,o),
(232,556,c),
(232,593.235,o),
(255.914,623,o),
(308,623,c),
(353.803,623.935,o),
(379,599.488,o),
(379,561,c)
);
},
{
closed = 1;
nodes = (
(619,30.958,l),
(539.562,127.218,l),
(571.443,189.868,o),
(595.617,271.807,o),
(590.252,328.683,c),
(479.306,368.916,l),
(482.839,304.947,o),
(472.479,273.167,o),
(457.454,232.41,c),
(349.165,367.368,l),
(420.505,409.652,o),
(491,458.974,o),
(491,570,c),
(491,660.985,o),
(424.702,741,o),
(311,741,c),
(192.461,741,o),
(119,657.368,o),
(119,547,c),
(119,510.172,o),
(129.529,470.112,o),
(149.538,433.174,c),
(177.348,392.723,l),
(118.348,352.207,o),
(60,293.675,o),
(60,183,c),
(60,61.038,o),
(144.695,-27,o),
(279,-27,c),
(346.974,-27,o),
(405.1,-5.516,o),
(457.203,35.784,c),
(502.222,-20,l),
(619,-20,l)
);
}
);
width = 679;
}
);
unicode = 38;
},
{
glyphname = paragraph;
lastChange = "2017-02-21 06:29:50 +0000";
layers = (
{
layerId = "7EBE3D46-E53E-419E-A3EC-596DA2EA1E0D";
name = Regular;
shapes = (
{
closed = 1;
nodes = (
(141.134,298.974,o),
(80,386.607,o),
(80,489,c),
(80,593.413,o),
(157.486,679,o),
(343,679,c),
(511,679,l),
(511,21,l),
(439,21,l),
(439,647,l),
(335,647,l),
(335,296.074,l)
);
}
);
width = 591;
}
);
unicode = 182;
},
{
glyphname = section;
lastChange = "2017-02-21 06:29:50 +0000";
layers = (
{
layerId = "7EBE3D46-E53E-419E-A3EC-596DA2EA1E0D";
name = Regular;
shapes = (
{
closed = 1;
nodes = (
(517.095,90.152,o),
(548,152.578,o),
(548,212,c),
(548,415.69,o),
(235,475.35,o),
(235,549,c),
(235,562.113,o),
(235.719,563.14,o),
(258.547,578.359,c),
(273.992,589.295,o),
(304.076,599,o),
(351,599,c),
(396.854,599,o),
(437.863,593.05,o),
(488,579.319,c),
(488,712.96,l),
(443.556,722.334,o),
(397.694,728,o),
(353,728,c),
(167.562,728,o),
(116,620.885,o),
(116,540,c),
(116,506.11,o),
(128.533,477.065,o),
(142.542,457.382,c),
(89.352,417.077,o),
(60,351.226,o),
(60,295,c),
(60,92.391,o),
(376,29.751,o),
(376,-38,c),
(376,-75.474,o),
(338.749,-94,o),
(249,-94,c),
(183.038,-94,o),
(135.933,-83.501,o),
(78,-64.795,c),
(78,-204.643,l),
(135.372,-218.303,o),
(173.365,-226,o),
(253,-226,c),
(358.15,-226,o),
(494,-169.935,o),
(494,-32,c),
(494,-0.904,o),
(481.191,29.2,o),
(466.027,50.107,c)
);
},
{
closed = 1;
nodes = (
(279.791,184.331,o),
(174,233.153,o),
(174,303,c),
(174,325.181,o),
(191.232,360.484,o),
(230.928,381.746,c),
(324.62,320.677,o),
(435,274.381,o),
(435,204,c),
(435,182.893,o),
(416.16,145.724,o),
(376.029,123.26,c)
);
}
);
width = 608;
}
);
unicode = 167;
},
{
glyphname = degree;
lastChange = "2017-02-21 06:29:50 +0000";
layers = (
{
layerId = "7EBE3D46-E53E-419E-A3EC-596DA2EA1E0D";
name = Regular;
shapes = (
{
closed = 1;
nodes = (
(294.213,407,o),
(367,479.787,o),
(367,571,c),
(367,661.213,o),
(294.213,734,o),
(214,734,c),
(132.787,734,o),
(60,661.213,o),
(60,571,c),
(60,479.787,o),
(132.787,407,o),
(214,407,c)
);
},
{
closed = 1;
nodes = (
(174.371,513,o),
(147,541.139,o),
(147,572,c),
(147,600.854,o),
(174.371,629,o),
(215,629,c),
(254.696,629,o),
(283,600.665,o),
(283,572,c),
(283,541.328,o),
(254.696,513,o),
(215,513,c)
);
}
);
width = 427;
}
);
unicode = 176;
},
{
glyphname = cedilla;
lastChange = "2017-02-21 06:29:50 +0000";
layers = (
{
layerId = "7EBE3D46-E53E-419E-A3EC-596DA2EA1E0D";
name = Regular;
shapes = (
{
closed = 1;
nodes = (
(218.523,-91.687,l),
(223.712,-96.301,o),
(294,-85.145,o),
(294,-110,c),
(294,-94.303,o),
(281.534,-66.375,o),
(245.359,-18.38,c),
(197.491,-229.563,l),
(299.19,-255.245,o),
(397,-247.825,o),
(397,-117,c),
(397,-30.691,o),
(349.653,-14.508,o),
(323.905,-12.078,c),
(334.318,36.864,l),
(237.744,25.118,l)
);
}
);
width = 600;
}
);
unicode = 184;
},
{
glyphname = ogonek;
lastChange = "2017-02-21 06:29:50 +0000";
layers = (
{
layerId = "7EBE3D46-E53E-419E-A3EC-596DA2EA1E0D";
name = Regular;
shapes = (
{
closed = 1;
nodes = (
(382.937,-129.233,l),
(372.17,-107.069,l),
(360.999,-108,o),
(346,-108,o),
(337,-108,c),
(303.682,-108,o),
(297,-100.455,o),
(297,-90,c),
(297,-67.341,o),
(307.445,-53.123,o),
(345,-41.737,c),
(345,20,l),
(243.692,20,l),
(172.394,-23.127,o),
(171,-80.805,o),
(171,-115,c),
(171,-176.581,o),
(228.547,-240,o),
(305,-240,c),
(324.004,-240,o),
(351.778,-238.749,o),
(371.118,-234.429,c)
);
}
);
width = 600;
}
);
unicode = 731;
},
{
glyphname = ring;
lastChange = "2017-02-21 06:29:50 +0000";
layers = (
{
layerId = "7EBE3D46-E53E-419E-A3EC-596DA2EA1E0D";
name = Regular;
shapes = (
{
closed = 1;
nodes = (
(378.025,510,o),
(443,574.975,o),
(443,655.5,c),
(443,736.025,o),
(378.025,801,o),
(307.5,801,c),
(236.975,801,o),
(172,736.025,o),
(172,655.5,c),
(172,574.975,o),
(236.975,510,o),
(307.5,510,c)
);
},
{
closed = 1;
nodes = (
(281.343,618,o),
(263,636.403,o),
(263,653,c),
(263,670.34,o),
(281.25,688,o),
(308,688,c),
(334.75,688,o),
(353,670.34,o),
(353,653,c),
(353,636.403,o),
(334.657,618,o),
(308,618,c)
);
}
);
width = 600;
}
);
unicode = 730;
},
{
glyphname = _one.001;
lastChange = "2017-02-21 06:29:50 +0000";
layers = (
{
layerId = "7EBE3D46-E53E-419E-A3EC-596DA2EA1E0D";
name = Regular;
shapes = (
{
closed = 1;
nodes = (
(38,556.866,l),
(260,604.124,l),
(260,720,l),
(209.965,720,l),
(38,677.54,l)
);
},
{
pos = (117,3);
ref = _I_small;
},
{
pos = (117,168);
ref = _I_small;
},
{
pos = (117,331);
ref = _I_small;
},
{
pos = (117,477);
ref = _I_small;
},
{
pos = (-1,-219);
ref = "_dash-small";
},
{
pos = (-84,-219);
ref = "_dash-small";
}
);
width = 600;
}
);
},
{
glyphname = newGlyph;
lastChange = "2017-02-21 06:29:50 +0000";
layers = (
{
layerId = "7EBE3D46-E53E-419E-A3EC-596DA2EA1E0D";
name = Regular;
shapes = (
{
closed = 1;
nodes = (
(453.418,163,o),
(504,234.239,o),
(504,317.5,c),
(504,400.761,o),
(453.418,472,o),
(398.5,472,c),
(343.582,472,o),
(293,400.761,o),
(293,317.5,c),
(293,234.239,o),
(343.582,163,o),
(398.5,163,c)
);
}
);
width = 600;
}
);
},
{
glyphname = _slash;
lastChange = "2020-03-07 07:44:02 +0000";
layers = (
{
layerId = "7EBE3D46-E53E-419E-A3EC-596DA2EA1E0D";
name = Regular;
shapes = (
{
closed = 1;
nodes = (
(296,689,l),
(14,-19,l),
(138,-19,l),
(323,467,l),
(344,467,l),
(332,689,l)
);
},
{
closed = 1;
nodes = (
(332,652,o),
(343,663,o),
(343,677,cs),
(343,690,o),
(332,702,o),
(318,702,cs),
(304,702,o),
(293,690,o),
(293,677,cs),
(293,663,o),
(304,652,o),
(318,652,cs)
);
}
);
width = 600;
}
);
},
{
glyphname = _curve_B;
lastChange = "2019-01-09 12:58:04 +0000";
layers = (
{
layerId = "7EBE3D46-E53E-419E-A3EC-596DA2EA1E0D";
name = Regular;
shapes = (
{
closed = 1;
nodes = (
(128,717,o),
(52,714,o),
(22,711.462,c),
(22,576.318,l),
(43.84,593.852,o),
(139,596,o),
(227,594,c),
(307,591,o),
(338,546,o),
(338,502,c),
(338,438,o),
(301,415,o),
(201,415,c),
(76,415,l),
(54,314,l),
(247,314,l),
(388,314,o),
(462,401,o),
(462,508,c),
(462,644,o),
(372,714,o),
(226,716,c)
);
}
);
width = 469;
}
);
},
{
glyphname = _curve_b;
lastChange = "2020-02-20 16:05:10 +0000";
layers = (
{
layerId = "7EBE3D46-E53E-419E-A3EC-596DA2EA1E0D";
name = Regular;
shapes = (
{
closed = 1;
nodes = (
(144,511,o),
(120,367,o),
(122,314,c),
(141,259,l),
(141,344,o),
(207,393,o),
(266,393,c),
(333,393,o),
(338,337,o),
(337,251,cs),
(337,163,o),
(302,106,o),
(238,105,c),
(172,104,o),
(144,123,o),
(141,173,c),
(114,148,l),
(112,82,o),
(137,-11,o),
(251,-11,c),
(380,-11,o),
(449,100,o),
(449,232,c),
(450,266,l),
(448,405,o),
(390,511,o),
(260,511,c)
);
}
);
width = 493;
}
);
},
{
glyphname = _C_curve;
lastChange = "2020-03-07 07:31:00 +0000";
layers = (
{
layerId = "7EBE3D46-E53E-419E-A3EC-596DA2EA1E0D";
name = Regular;
shapes = (
{
closed = 1;
nodes = (
(446,640,l),
(405,666,o),
(347,691,o),
(273,689,cs),
(125,686,o),
(1,589,o),
(1,311,cs),
(1,59,o),
(115,111,o),
(115,342,cs),
(115,498,o),
(189,566,o),
(276,565,cs),
(335,564,o),
(382,554,o),
(421,541,c)
);
}
);
width = 506;
}
);
},
{
glyphname = _I_small;
lastChange = "2017-02-21 06:29:50 +0000";
layers = (
{
layerId = "7EBE3D46-E53E-419E-A3EC-596DA2EA1E0D";
name = Regular;
shapes = (
{
closed = 1;
nodes = (
(30,-19,l),
(143,-19,l),
(143,188,l),
(30,188,l)
);
}
);
width = 469;
}
);
},
{
glyphname = _curve_generic;
lastChange = "2017-02-21 06:29:50 +0000";
layers = (
{
layerId = "7EBE3D46-E53E-419E-A3EC-596DA2EA1E0D";
name = Regular;
shapes = (
{
closed = 1;
nodes = (
(347,406.79,o),
(460,384.949,o),
(460,499,c),
(460,619.435,o),
(392.446,723.018,o),
(251.928,721.999,c),
(88.807,720.905,l),
(111.196,600,l),
(233,600,l),
(316.89,600,o),
(347,559.74,o),
(347,498,c)
);
}
);
width = 600;
}
);
},
{
glyphname = _EF_horizontal;
lastChange = "2020-01-25 07:13:17 +0000";
layers = (
{
layerId = "7EBE3D46-E53E-419E-A3EC-596DA2EA1E0D";
name = Regular;
shapes = (
{
closed = 1;
nodes = (
(124,302,l),
(346,302,l),
(346,413,l),
(124,413,l)
);
}
);
width = 600;
}
);
},
{
glyphname = "_dash-small";
lastChange = "2018-12-26 09:43:30 +0000";
layers = (
{
layerId = "7EBE3D46-E53E-419E-A3EC-596DA2EA1E0D";
name = Regular;
shapes = (
{
closed = 1;
nodes = (
(160,222,l),
(342,222,l),
(342,343,l),
(160,343,l)
);
}
);
width = 600;
}
);
},
{
glyphname = _dot;
lastChange = "2017-02-23 13:03:33 +0000";
layers = (
{
layerId = "7EBE3D46-E53E-419E-A3EC-596DA2EA1E0D";
name = Regular;
shapes = (
{
closed = 1;
nodes = (
(172.953,579,o),
(217,614,o),
(217,669,c),
(217,725,o),
(173.017,761,o),
(131,761,c),
(87.983,761,o),
(44,725,o),
(44,669,c),
(44,614,o),
(88.047,579,o),
(131,579,c)
);
}
);
width = 260;
}
);
},
{
glyphname = _hmn;
lastChange = "2020-02-21 18:32:39 +0000";
layers = (
{
layerId = "7EBE3D46-E53E-419E-A3EC-596DA2EA1E0D";
name = Regular;
shapes = (
{
closed = 1;
nodes = (
(342,185,o),
(452,64,o),
(454,203,c),
(454,277,l),
(454,429,o),
(419,510,o),
(285,510,c),
(205,510,o),
(157,456,o),
(133,391,c),
(149,223,l),
(149,315,o),
(185,388,o),
(266,388,c),
(323,387,o),
(341,349,o),
(341,261,c)
);
},
{
pos = (311,77);
ref = _I_small;
},
{
pos = (311,19);
ref = _I_small;
}
);
width = 600;
}
);
},
{
glyphname = _w_slash;
lastChange = "2017-03-03 07:34:52 +0000";
layers = (
{
layerId = "7EBE3D46-E53E-419E-A3EC-596DA2EA1E0D";
name = Regular;
shapes = (
{
closed = 1;
nodes = (
(301,287,l),
(268,287,l),
(135,699,l),
(14,699,l),
(247,-20,l),
(261,-20,l)
);
}
);
width = 600;
}
);
},
{
glyphname = _w_slash_2;
lastChange = "2017-03-03 07:36:08 +0000";
layers = (
{
layerId = "7EBE3D46-E53E-419E-A3EC-596DA2EA1E0D";
name = Regular;
shapes = (
{
closed = 1;
nodes = (
(244,-19,l),
(382,404,l),
(392,403,l),
(384,720,l),
(366,720,l),
(186,168,l),
(237,-19,l)
);
}
);
width = 600;
}
);
},
{
glyphname = _X;
lastChange = "2019-01-08 16:15:02 +0000";
layers = (
{
layerId = "7EBE3D46-E53E-419E-A3EC-596DA2EA1E0D";
name = Regular;
shapes = (
{
closed = 1;
nodes = (
(327,279,l),
(618,718,l),
(474,718,l),
(283,419,l),
(283,279,l)
);
}
);
width = 600;
}
);
},
{
glyphname = _curve_lower;
lastChange = "2020-01-20 22:17:52 +0000";
layers = (
{
layerId = "7EBE3D46-E53E-419E-A3EC-596DA2EA1E0D";
name = Regular;
shapes = (
{
closed = 1;
nodes = (
(403,153,l),
(363,139,o),
(333.924,131.255,o),
(277,131,c),
(241,131,o),
(206,162,o),
(206,214,cs),
(206,368,l),
(93,368,l),
(93,169,ls),
(93,55.352,o),
(167,-10,o),
(264,-10,cs),
(318,-10,o),
(381,22,o),
(418,63,c)
);
}
);
width = 476;
}
);
},
{
glyphname = _curve_lower_big;
lastChange = "2020-01-16 21:38:51 +0000";
layers = (
{
layerId = "7EBE3D46-E53E-419E-A3EC-596DA2EA1E0D";
name = Regular;
shapes = (
{
closed = 1;
nodes = (
(-205,131,l),
(-247,112,o),
(-265,108,o),
(-330,109,cs),
(-383,109,o),
(-439,150,o),
(-439,231,cs),
(-439,251,ls),
(-439,359,o),
(-553,345,o),
(-553,261,cs),
(-553,222,ls),
(-553,70.727,o),
(-453.954,-26.071,o),
(-341.619,-22.064,c),
(-287.875,-23.004,o),
(-227,-9,o),
(-190,31,c)
);
}
);
width = 526;
}
);
},
{
glyphname = _o_curve;
lastChange = "2020-02-20 00:41:15 +0000";
layers = (
{
layerId = "7EBE3D46-E53E-419E-A3EC-596DA2EA1E0D";
name = Regular;
shapes = (
{
closed = 1;
nodes = (
(257,508,l),
(124,508,o),
(37,405,o),
(35,247,c),
(147,247,l),
(147,328,o),
(178,386,o),
(249,386,c),
(251,386,o),
(251,386,o),
(253,386,c)
);
}
);
width = 900;
}
);
},
{
glyphname = _M;
lastChange = "2020-03-07 07:35:43 +0000";
layers = (
{
layerId = "7EBE3D46-E53E-419E-A3EC-596DA2EA1E0D";
name = Regular;
shapes = (
{
closed = 1;
nodes = (
(613,598,l),
(612,707,l),
(612,728,l),
(568,744,l),
(293,421,l),
(302,273,l),
(326,270,l)
);
},
{
closed = 1;
nodes = (
(601,703,o),
(612,714,o),
(612,728,cs),
(612,741,o),
(601,753,o),
(587,753,cs),
(573,753,o),
(562,741,o),
(562,728,cs),
(562,714,o),
(573,703,o),
(587,703,cs)
);
},
{
closed = 1;
nodes = (
(322,263,o),
(333,274,o),
(333,288,cs),
(333,301,o),
(322,313,o),
(308,313,cs),
(294,313,o),
(283,301,o),
(283,288,cs),
(283,274,o),
(294,263,o),
(308,263,cs)
);
}
);
width = 642;
}
);
},
{
glyphname = _O;
lastChange = "2020-03-07 07:48:18 +0000";
layers = (
{
layerId = "7EBE3D46-E53E-419E-A3EC-596DA2EA1E0D";
name = Regular;
shapes = (
{
closed = 1;
nodes = (
(302,727,l),
(284,727,l),
(120,727,o),
(10,592,o),
(10,361,c),
(10,360,o),
(123,362,o),
(123,363,c),
(123,536,o),
(192,594,o),
(295,594,c),
(301.565,594,l)
);
}
);
width = 900;
}
);
},
{
glyphname = _x;
lastChange = "2017-02-22 17:52:04 +0000";
layers = (
{
layerId = "7EBE3D46-E53E-419E-A3EC-596DA2EA1E0D";
name = Regular;
shapes = (
{
closed = 1;
nodes = (
(348,193.284,l),
(480,0,l),
(626,0,l),
(392.191,331,l),
(368,281,l)
);
}
);
width = 900;
}
);
},
{
glyphname = _w_small_slash;
lastChange = "2020-01-20 20:10:33 +0000";
layers = (
{
layerId = "7EBE3D46-E53E-419E-A3EC-596DA2EA1E0D";
name = Regular;
shapes = (
{
closed = 1;
nodes = (
(255,208,l),
(249,208,l),
(143,500,l),
(24,500,l),
(214,10,l),
(243,0,l)
);
}
);
width = 900;
}
);
},
{
glyphname = _w_small_slash_2;
lastChange = "2020-01-20 20:11:23 +0000";
layers = (
{
layerId = "7EBE3D46-E53E-419E-A3EC-596DA2EA1E0D";
name = Regular;
shapes = (
{
closed = 1;
nodes = (
(408,193,l),
(296,494,l),
(277,500,l),
(239,285,l),
(259,285,l),
(363,10,l),
(377,10,l)
);
}
);
width = 900;
}
);
},
{
glyphname = _y;
lastChange = "2020-02-20 00:46:33 +0000";
layers = (
{
background = {
shapes = (
{
closed = 1;
nodes = (
(345,27,l),
(544,520,l),
(415,520,l),
(343,314,l),
(311,167,l),
(314,27,l)
);
},
{
closed = 1;
nodes = (
(354.927,236,o),
(365,253.461,o),
(365,275,cs),
(365,296.539,o),
(354.927,314,o),
(342.5,314,cs),
(330.073,314,o),
(320,296.539,o),
(320,275,cs),
(320,253.461,o),
(330.073,236,o),
(342.5,236,cs)
);
}
);
};
layerId = "7EBE3D46-E53E-419E-A3EC-596DA2EA1E0D";
name = Regular;
shapes = (
{
closed = 1;
nodes = (
(345,27,l),
(554,520,l),
(425,520,l),
(292,167,l),
(314,27,l)
);
}
);
width = 900;
}
);
},
{
glyphname = _D;
lastChange = "2020-03-07 07:52:31 +0000";
layers = (
{
layerId = "7EBE3D46-E53E-419E-A3EC-596DA2EA1E0D";
name = Regular;
shapes = (
{
closed = 1;
nodes = (
(480,178,o),
(593,204,o),
(593,379,c),
(593,602,o),
(458,715,o),
(278,718,c),
(207,719,o),
(120,716,o),
(72,711,c),
(72,580,l),
(113,589,o),
(216,590,o),
(270,590,c),
(406,590,o),
(480,504,o),
(480,379,c)
);
}
);
width = 533;
}
);
},
{
glyphname = _qtail;
lastChange = "2017-02-21 06:29:50 +0000";
layers = (
{
anchors = (
{
name = _tailq;
pos = (467,92);
}
);
layerId = "7EBE3D46-E53E-419E-A3EC-596DA2EA1E0D";
name = Regular;
shapes = (
{
closed = 1;
nodes = (
(310,195.839,l),
(466.917,-19,l),
(557,-19,l),
(557,32.877,l),
(354.226,323,l),
(310,323,l)
);
}
);
width = 616;
}
);
},
{
glyphname = _m_curve;
lastChange = "2018-12-31 12:40:48 +0000";
layers = (
{
layerId = "7EBE3D46-E53E-419E-A3EC-596DA2EA1E0D";
name = Regular;
shapes = (
{
closed = 1;
nodes = (
(127,511,o),
(111,417,o),
(92,306,c),
(124,256,l),
(124,344,o),
(152,389,o),
(206,389,c),
(249,389,o),
(276,347,o),
(276,263,c),
(276,0,l),
(389,0,l),
(389,273,l),
(387,416,o),
(342,511,o),
(226,511,c)
);
}
);
width = 741;
}
);
},
{
glyphname = _R_slash;
lastChange = "2017-02-21 06:29:50 +0000";
layers = (
{
layerId = "7EBE3D46-E53E-419E-A3EC-596DA2EA1E0D";
name = Regular;
shapes = (
{
closed = 1;
nodes = (
(183.664,395,l),
(376.323,-18,l),
(497.251,-18,l),
(305.699,395,l)
);
}
);
width = 533;
}
);
},
{
glyphname = _fraction_slash;
lastChange = "2017-02-21 06:29:50 +0000";
layers = (
{
layerId = "7EBE3D46-E53E-419E-A3EC-596DA2EA1E0D";
name = Regular;
shapes = (
{
closed = 1;
nodes = (
(406.077,720,l),
(172,18.791,l),
(172,-19,l),
(247.046,-19,l),
(473,681.356,l),
(473,720,l)
);
}
);
width = 710;
}
);
},
{
glyphname = _backslash;
lastChange = "2017-02-21 06:29:50 +0000";
layers = (
{
layerId = "7EBE3D46-E53E-419E-A3EC-596DA2EA1E0D";
name = Regular;
shapes = (
{
closed = 1;
nodes = (
(60,671.293,l),
(286.007,-19,l),
(385,-19,l),
(385,28.661,l),
(161.031,720,l),
(60,720,l)
);
}
);
width = 600;
}
);
},
{
glyphname = _exclamation;
lastChange = "2017-02-21 06:29:50 +0000";
layers = (
{
layerId = "7EBE3D46-E53E-419E-A3EC-596DA2EA1E0D";
name = Regular;
shapes = (
{
closed = 1;
nodes = (
(74.84,218,l),
(186.161,218,l),
(207.896,719,l),
(53.104,719,l)
);
}
);
width = 600;
}
);
},
{
glyphname = _two_question;
lastChange = "2017-02-21 06:29:50 +0000";
layers = (
{
layerId = "7EBE3D46-E53E-419E-A3EC-596DA2EA1E0D";
name = Regular;
shapes = (
{
closed = 1;
nodes = (
(221.721,262.217,l),
(223.519,235.769,l),
(223.519,235.777,o),
(267.652,198.133,o),
(300.159,174.733,c),
(440.451,366.78,o),
(484,439.607,o),
(484,538,c),
(484,654.937,o),
(406.315,736,o),
(260,736,c),
(212.054,736,o),
(141.65,726.124,o),
(83.152,682.289,c),
(108.067,557.716,l),
(146.67,578.248,o),
(197.758,602,o),
(259,602,c),
(341.751,602,o),
(362,566.921,o),
(362,530,c),
(362,472.362,o),
(342.819,437.336,o),
(242.789,293.414,c)
);
}
);
width = 565;
}
);
},
{
glyphname = _quote;
lastChange = "2017-02-21 06:29:50 +0000";
layers = (
{
layerId = "7EBE3D46-E53E-419E-A3EC-596DA2EA1E0D";
name = Regular;
shapes = (
{
closed = 1;
nodes = (
(120.666,-16.448,l),
(127.74,-18.145,o),
(112.137,-60.65,o),
(74.567,-132.445,c),
(140.919,-146.562,l),
(143,-147,l),
(145.915,-147,o),
(243.203,-28.964,o),
(228.485,96.242,c),
(117.317,19.456,l)
);
}
);
width = 600;
}
);
},
{
glyphname = _bracket;
lastChange = "2017-02-21 06:29:50 +0000";
layers = (
{
layerId = "7EBE3D46-E53E-419E-A3EC-596DA2EA1E0D";
name = Regular;
shapes = (
{
closed = 1;
nodes = (
(496.569,-141.555,l),
(360.431,-14.567,o),
(296,120.72,o),
(296,270,c),
(296,419.201,o),
(359.285,552.265,o),
(496.507,681.688,c),
(402.676,749.682,l),
(235.427,593.468,o),
(170,426.624,o),
(170,264,c),
(170,88.74,o),
(250.801,-73.559,o),
(401.726,-210.655,c)
);
}
);
width = 600;
}
);
},
{
glyphname = _square_bracket;
lastChange = "2017-02-21 06:29:50 +0000";
layers = (
{
layerId = "7EBE3D46-E53E-419E-A3EC-596DA2EA1E0D";
name = Regular;
shapes = (
{
closed = 1;
nodes = (
(300,721,l),
(93,721,l),
(93,-221,l),
(300,-221,l),
(300,-97,l),
(210,-97,l),
(210,596,l),
(300,596,l)
);
}
);
width = 600;
}
);
},
{
glyphname = _percent;
lastChange = "2017-02-21 06:29:50 +0000";
layers = (
{
layerId = "7EBE3D46-E53E-419E-A3EC-596DA2EA1E0D";
name = Regular;
shapes = (
{
closed = 1;
nodes = (
(72.615,555,o),
(1,513.291,o),
(1,387,c),
(1,258.017,o),
(74.73,220,o),
(143,220,c),
(210.269,220,o),
(286,259.013,o),
(286,387,c),
(286,513.448,o),
(212.357,555,o),
(143,555,c)
);
},
{
closed = 1;
nodes = (
(174.239,445,o),
(180,440.794,o),
(180,387,c),
(180,332.824,o),
(174.706,330,o),
(143,330,c),
(111.897,330,o),
(106,334.691,o),
(106,387,c),
(106,439.649,o),
(113.581,445,o),
(143,445,c)
);
}
);
width = 600;
}
);
},
{
glyphname = _multiply;
lastChange = "2017-02-21 06:29:50 +0000";
layers = (
{
layerId = "7EBE3D46-E53E-419E-A3EC-596DA2EA1E0D";
name = Regular;
shapes = (
{
closed = 1;
nodes = (
(433.661,279.448,l),
(198.363,530.068,l),
(114.135,458.066,l),
(353.86,199.646,l)
);
}
);
width = 561;
}
);
},
{
glyphname = _less_equal;
lastChange = "2017-02-21 06:29:50 +0000";
layers = (
{
layerId = "7EBE3D46-E53E-419E-A3EC-596DA2EA1E0D";
name = Regular;
shapes = (
{
closed = 1;
nodes = (
(500,429.136,l),
(105.248,626,l),
(72,626,l),
(72,502.477,l),
(381.807,360.998,l),
(500,362.093,l)
);
}
);
width = 600;
}
);
},
{
glyphname = _f_integral;
lastChange = "2020-02-08 19:31:02 +0000";
layers = (
{
layerId = "7EBE3D46-E53E-419E-A3EC-596DA2EA1E0D";
name = Regular;
shapes = (
{
closed = 1;
nodes = (
(356,721,o),
(315,738,o),
(273,738,c),
(184,738,o),
(117,680.675,o),
(117,595,c),
(117,346,l),
(230,346,l),
(230,533,l),
(230,593,o),
(262,612,o),
(297,613,c),
(337,614,o),
(352,613,o),
(383,607,c),
(396,692,l)
);
}
);
width = 390;
}
);
},
{
glyphname = _circum_part;
lastChange = "2017-02-21 06:29:50 +0000";
layers = (
{
layerId = "7EBE3D46-E53E-419E-A3EC-596DA2EA1E0D";
name = Regular;
shapes = (
{
closed = 1;
nodes = (
(250.87,253.083,l),
(348.336,137,l),
(448,137,l),
(448,183.207,l),
(295.606,361,l),
(252.254,361,l)
);
}
);
width = 600;
}
);
},
{
glyphname = _circle;
lastChange = "2017-02-21 06:29:50 +0000";
layers = (
{
layerId = "7EBE3D46-E53E-419E-A3EC-596DA2EA1E0D";
name = Regular;
shapes = (
{
closed = 1;
nodes = (
(433.197,36,o),
(584,185.741,o),
(584,372,c),
(584,557.213,o),
(433.213,708,o),
(258,708,c),
(81.77,708,o),
(-68,557.167,o),
(-68,372,c),
(-68,185.787,o),
(81.787,36,o),
(258,36,c)
);
},
{
closed = 1;
nodes = (
(118.453,133,o),
(14,246.682,o),
(14,375,c),
(14,504.043,o),
(118.346,613,o),
(257,613,c),
(395.675,613,o),
(501,503.984,o),
(501,375,c),
(501,246.741,o),
(395.57,133,o),
(257,133,c)
);
}
);
width = 515;
}
);
},
{
glyphname = _acute;
lastChange = "2017-02-21 06:29:50 +0000";
layers = (
{
layerId = "7EBE3D46-E53E-419E-A3EC-596DA2EA1E0D";
name = Regular;
shapes = (
{
closed = 1;
nodes = (
(293.473,771.339,o),
(219.991,629.529,o),
(190.641,570,c),
(291,570,l),
(295.488,570,o),
(410.219,762.692,o),
(386.013,786.905,c),
(285.841,788.097,l)
);
}
);
width = 600;
}
);
},
{
glyphname = _breve;
lastChange = "2017-02-21 06:29:50 +0000";
layers = (
{
layerId = "7EBE3D46-E53E-419E-A3EC-596DA2EA1E0D";
name = Regular;
shapes = (
{
closed = 1;
nodes = (
(90.05,760.999,l),
(90.05,761.222,o),
(66.353,566,o),
(289,566,c),
(393.283,566,o),
(391.794,689,o),
(267,689,c),
(224.121,689,o),
(199.836,730.061,o),
(208.879,779,c),
(100,779,l)
);
}
);
width = 600;
}
);
},
{
glyphname = _i_dotless_full;
lastChange = "2020-01-20 19:26:29 +0000";
layers = (
{
hints = (
{
horizontal = 1;
place = (420, 80);
place = (420, 80);
type = Stem;
}
);
layerId = "7EBE3D46-E53E-419E-A3EC-596DA2EA1E0D";
name = Regular;
shapes = (
{
closed = 1;
nodes = (
(70,389,l),
(232,389,l),
(232,500,l),
(70,500,l)
);
},
{
pos = (101,143);
ref = _I_small;
},
{
pos = (101,272);
ref = _I_small;
},
{
pos = (101,312);
ref = _I_small;
},
{
pos = (101,20);
ref = _I_small;
}
);
width = 323;
}
);
},
{
glyphname = _slash_diacritics;
lastChange = "2017-02-21 06:29:50 +0000";
layers = (
{
layerId = "7EBE3D46-E53E-419E-A3EC-596DA2EA1E0D";
name = Regular;
shapes = (
{
closed = 1;
nodes = (
(320.38,362.824,l),
(317.467,489.539,l),
(3.183,373.413,l),
(1.73,244.132,l)
);
}
);
width = 515;
}
);
},
{
glyphname = _cedilla_fragment;
lastChange = "2017-02-21 06:29:50 +0000";
layers = (
{
layerId = "7EBE3D46-E53E-419E-A3EC-596DA2EA1E0D";
name = Regular;
shapes = (
{
closed = 1;
nodes = (
(287,296.999,l),
(324.517,273.221,o),
(363.33,251.951,o),
(421.182,253.003,c),
(480.577,254.045,o),
(520.613,274.663,o),
(564.597,325.454,c),
(535.841,447.325,l),
(498.376,412.337,o),
(458.097,391.105,o),
(414.744,389.993,c),
(364.026,390,o),
(327.035,423.137,o),
(287,447.595,c)
);
}
);
width = 600;
}
);
},
{
glyphname = _ve_cyr;
lastChange = "2019-01-10 16:15:38 +0000";
layers = (
{
layerId = "7EBE3D46-E53E-419E-A3EC-596DA2EA1E0D";
name = Regular;
shapes = (
{
closed = 1;
nodes = (
(99.243,439.381,l),
(109,415,l),
(120,415,o),
(244,415,o),
(255,415,c),
(419.923,417.062,o),
(480,458,o),
(480,559,c),
(480,661,o),
(399,703,o),
(261,702,c),
(98,701,l),
(120,580,l),
(282,580,l),
(338,580,o),
(356,575,o),
(356,548,c),
(356,517,o),
(339,504,o),
(279,504,c),
(113.749,504,l)
);
}
);
width = 556;
}
);
},
{
glyphname = _three;
lastChange = "2020-03-07 09:16:46 +0000";
layers = (
{
layerId = "7EBE3D46-E53E-419E-A3EC-596DA2EA1E0D";
name = Regular;
shapes = (
{
closed = 1;
nodes = (
(294,324,o),
(479,338,o),
(479,522,c),
(479,638.972,o),
(391.302,730,o),
(245,730,c),
(197.054,730,o),
(127,720,o),
(78,676,c),
(93,582,l),
(132,592,o),
(182.758,596,o),
(244,596,c),
(329.271,596,o),
(357,551.877,o),
(357,514,c),
(357,441,o),
(284,407,o),
(162,407,c),
(162,309,l)
);
}
);
width = 539;
}
);
},
{
glyphname = _ze_cyr;
lastChange = "2017-02-21 06:29:50 +0000";
layers = (
{
layerId = "7EBE3D46-E53E-419E-A3EC-596DA2EA1E0D";
name = Regular;
shapes = (
{
closed = 1;
nodes = (
(266.355,222.116,o),
(479,217.713,o),
(479,370,c),
(479,504.127,o),
(392.131,537,o),
(285,537,c),
(180.542,537,o),
(148.312,517.584,o),
(87.1,497.295,c),
(113.329,373.439,l),
(151.575,397.046,o),
(201.295,403,o),
(267,403,c),
(331.78,403,o),
(357,391.01,o),
(357,371,c),
(357,343.051,o),
(297.455,305.693,o),
(162,325.37,c),
(162,205.51,l)
);
}
);
width = 539;
}
);
},
{
glyphname = _D_cyr;
lastChange = "2020-01-25 07:15:55 +0000";
layers = (
{
layerId = "7EBE3D46-E53E-419E-A3EC-596DA2EA1E0D";
name = Regular;
shapes = (
{
closed = 1;
nodes = (
(492,-1,l),
(550,-1,l),
(550,-145,l),
(662,-145,l),
(661,111,l),
(485,110,l)
);
}
);
width = 600;
}
);
},
{
glyphname = _k_cyr;
lastChange = "2017-02-21 06:29:50 +0000";
layers = (
{
layerId = "7EBE3D46-E53E-419E-A3EC-596DA2EA1E0D";
name = Regular;
shapes = (
{
closed = 1;
nodes = (
(105.016,207.125,l),
(251.235,205.983,l),
(279.16,246.194,l),
(496.835,518,l),
(345.015,518,l),
(191.988,314.964,l),
(132.107,313.895,l)
);
}
);
width = 600;
}
);
},
{
glyphname = _d_curl;
lastChange = "2017-02-21 06:29:50 +0000";
layers = (
{
layerId = "7EBE3D46-E53E-419E-A3EC-596DA2EA1E0D";
name = Regular;
shapes = (
{
closed = 1;
nodes = (
(261,530.675,l),
(163.678,536.899,o),
(128.798,452.794,o),
(84.758,363.066,c),
(126.866,275.947,l),
(185.414,392.928,o),
(191.529,399.986,o),
(261,398.913,c)
);
}
);
width = 494;
}
);
},
{
glyphname = _Z;
lastChange = "2020-03-07 07:45:52 +0000";
layers = (
{
layerId = "7EBE3D46-E53E-419E-A3EC-596DA2EA1E0D";
name = Regular;
shapes = (
{
closed = 1;
nodes = (
(287,111,l),
(630,681,l),
(609,720,l),
(538,720,l),
(272,251,l),
(242,111,l)
);
},
{
closed = 1;
nodes = (
(623,670,o),
(634,681,o),
(634,695,cs),
(634,708,o),
(623,720,o),
(609,720,cs),
(595,720,o),
(584,708,o),
(584,695,cs),
(584,681,o),
(595,670,o),
(609,670,cs)
);
}
);
width = 661;
}
);
},
{
glyphname = _c;
lastChange = "2020-01-12 19:53:53 +0000";
layers = (
{
layerId = "7EBE3D46-E53E-419E-A3EC-596DA2EA1E0D";
name = Regular;
shapes = (
{
closed = 1;
nodes = (
(330,547,o),
(360,527,o),
(404,502,c),
(419,612,l),
(382,653,o),
(319,687,o),
(265,685,c),
(266,544,l)
);
}
);
width = 506;
}
);
},
{
glyphname = _quotes;
lastChange = "2017-03-05 11:25:39 +0000";
layers = (
{
layerId = "7EBE3D46-E53E-419E-A3EC-596DA2EA1E0D";
name = Regular;
shapes = (
{
closed = 1;
nodes = (
(126,-28,o),
(133,-54,o),
(103.246,-93.373,c),
(158.078,-110.127,l),
(161,-111,l),
(163.704,-111,o),
(252,-12,o),
(237,84,c),
(96,-6,l)
);
},
{
pos = (23,-608);
ref = _dot;
}
);
width = 600;
}
);
},
{
glyphname = _yQ;
lastChange = "2017-02-21 06:29:50 +0000";
layers = (
{
layerId = "7EBE3D46-E53E-419E-A3EC-596DA2EA1E0D";
name = Regular;
shapes = (
{
closed = 1;
nodes = (
(219.364,8,l),
(201.594,-41.207,l),
(180.945,-97.734,o),
(145.599,-103.466,o),
(101.375,-82.627,c),
(114.674,-218.575,l),
(197.223,-234.556,o),
(258.018,-190.503,o),
(292.349,-100.1,c),
(332.358,8,l)
);
}
);
width = 511;
}
);
},
{
glyphname = _m_cyr;
lastChange = "2017-02-21 06:29:50 +0000";
layers = (
{
layerId = "7EBE3D46-E53E-419E-A3EC-596DA2EA1E0D";
name = Regular;
shapes = (
{
closed = 1;
nodes = (
(159.751,520,l),
(10,28.403,l),
(10,-19,l),
(123.882,-19,l),
(199.882,282,l),
(225.883,282,l),
(194.631,520,l)
);
}
);
width = 682;
}
);
},
{
glyphname = _m_cyr_2;
lastChange = "2020-03-07 09:22:03 +0000";
layers = (
{
layerId = "7EBE3D46-E53E-419E-A3EC-596DA2EA1E0D";
name = Regular;
shapes = (
{
closed = 1;
nodes = (
(138.897,389.853,l),
(381,121,l),
(397,121,l),
(391,293,l),
(394,293,l),
(183.518,520,l),
(140.199,520,l)
);
}
);
width = 682;
}
);
},
{
glyphname = _ya_cyr;
lastChange = "2020-03-07 09:26:43 +0000";
layers = (
{
layerId = "7EBE3D46-E53E-419E-A3EC-596DA2EA1E0D";
name = Regular;
shapes = (
{
closed = 1;
nodes = (
(169,360,o),
(124,377,o),
(122,431,c),
(124,485,o),
(168.802,502.036,o),
(213,504,cs),
(259,506,o),
(338,498,o),
(380,493,c),
(385,618,l),
(351,624,o),
(253,631,o),
(214,631,cs),
(101.342,631,o),
(17.854,566.283,o),
(10.525,454.254,c),
(10.18,451.059,o),
(10,447.644,o),
(10,444,cs),
(10.018,441,ls),
(10.006,440.003,o),
(10,439.004,o),
(10,438,c),
(10.525,427.746,ls),
(17.854,315.717,o),
(91,267,o),
(214,261,cs),
(253,259,o),
(351,268,o),
(385,274,c),
(380,379,l),
(338,370,o),
(259,356,o),
(213,358,cs)
);
}
);
width = 499;
}
);
},
{
glyphname = _u_cyr;
lastChange = "2020-03-07 09:24:26 +0000";
layers = (
{
layerId = "7EBE3D46-E53E-419E-A3EC-596DA2EA1E0D";
name = Regular;
shapes = (
{
closed = 1;
nodes = (
(10,282,o),
(96,211,o),
(214,211,c),
(253,211,o),
(351,218,o),
(385,224,c),
(380,339,l),
(338,334,o),
(259,336,o),
(213,338,c),
(168,340,o),
(122,347,o),
(122,404,c),
(122,443,o),
(10,495,o),
(10,404,c)
);
}
);
width = 499;
}
);
},
{
glyphname = _curve_cursive;
lastChange = "2020-02-26 06:39:11 +0000";
layers = (
{
layerId = "7EBE3D46-E53E-419E-A3EC-596DA2EA1E0D";
name = Regular;
shapes = (
{
closed = 1;
nodes = (
(50,255,c),
(50,235,l),
(50,86,o),
(150,-9,o),
(266,-9,c),
(338,-8,o),
(391,17,o),
(425,65,c),
(404,137,l),
(362,121,o),
(325,117,o),
(276,117,c),
(220,117,o),
(164,158,o),
(164,234,c),
(164,349,o),
(50,364,o)
);
}
);
width = 537;
}
);
},
{
glyphname = _ending_cursive;
lastChange = "2017-02-21 06:29:50 +0000";
layers = (
{
layerId = "7EBE3D46-E53E-419E-A3EC-596DA2EA1E0D";
name = Regular;
shapes = (
{
closed = 1;
nodes = (
(269.778,-25.78,l),
(346.663,-29.052,o),
(399.94,4.517,o),
(443.289,55.558,c),
(383.162,161.114,l),
(350.024,122.47,o),
(313.435,100.467,o),
(271.226,104.466,c)
);
}
);
width = 537;
}
);
},
{
glyphname = _z;
lastChange = "2020-01-25 07:12:13 +0000";
layers = (
{
layerId = "7EBE3D46-E53E-419E-A3EC-596DA2EA1E0D";
name = Regular;
shapes = (
{
closed = 1;
nodes = (
(407,499,l),
(348,499,l),
(177,210,l),
(150,70,l),
(215,70,l),
(428,461,l)
);
},
{
closed = 1;
nodes = (
(420,449,o),
(431,460,o),
(431,474,cs),
(431,487,o),
(420,499,o),
(406,499,cs),
(392,499,o),
(381,487,o),
(381,474,cs),
(381,460,o),
(392,449,o),
(406,449,cs)
);
}
);
width = 481;
}
);
},
{
glyphname = _g_two_storey;
lastChange = "2017-02-21 06:29:50 +0000";
layers = (
{
layerId = "7EBE3D46-E53E-419E-A3EC-596DA2EA1E0D";
name = Regular;
shapes = (
{
closed = 1;
nodes = (
(280.998,412.556,l),
(262.548,523,l),
(263.032,523,o),
(263.516,523,o),
(264,523,c),
(122.177,523,o),
(52.201,434.966,o),
(50.002,329.417,c),
(50,298.682,o),
(163,299.884,o),
(163,330,c),
(163,362.566,o),
(190.505,393,o),
(265,393,c),
(267,393,o),
(269,393,o),
(271,393,c)
);
}
);
width = 538;
}
);
},
{
glyphname = _g_loop;
lastChange = "2017-02-21 06:29:50 +0000";
layers = (
{
layerId = "7EBE3D46-E53E-419E-A3EC-596DA2EA1E0D";
name = Regular;
shapes = (
{
closed = 1;
nodes = (
(211.003,-74.506,l),
(229.503,-176,l),
(229.002,-176,o),
(228.501,-176,o),
(228,-176,c),
(361.303,-176,o),
(419.704,-115.228,o),
(421.997,-15.46,c),
(422,15.217,o),
(309,15.217,o),
(309,-15,c),
(309,-37.808,o),
(291.79,-55,o),
(227,-55,c),
(225,-55,o),
(223,-55,o),
(221,-55,c)
);
}
);
width = 538;
}
);
},
{
glyphname = _N;
lastChange = "2020-03-07 07:47:36 +0000";
layers = (
{
layerId = "7EBE3D46-E53E-419E-A3EC-596DA2EA1E0D";
name = Regular;
shapes = (
{
closed = 1;
nodes = (
(475,251,l),
(104,701,l),
(60,684,l),
(60,468.309,l),
(152,456,l),
(475,81,l)
);
},
{
closed = 1;
nodes = (
(99,660,o),
(110,671,o),
(110,685,cs),
(110,698,o),
(99,710,o),
(85,710,cs),
(71,710,o),
(60,698,o),
(60,685,cs),
(60,671,o),
(71,660,o),
(85,660,cs)
);
}
);
width = 618;
}
);
},
{
glyphname = _C_lowe;
lastChange = "2020-03-07 07:32:25 +0000";
layers = (
{
layerId = "7EBE3D46-E53E-419E-A3EC-596DA2EA1E0D";
name = Regular;
shapes = (
{
closed = 1;
nodes = (
(30,298,c),
(30,55,o),
(168,-25,o),
(296,-26,c),
(378,-25,o),
(432,5,o),
(474,43,c),
(454,136,l),
(414,117,o),
(364,107,o),
(296,107,c),
(227,107,o),
(144,152,o),
(144,307,c),
(144,466,o),
(30,458,o)
);
}
);
width = 492;
}
);
},
{
glyphname = _A;
lastChange = "2017-03-03 07:34:33 +0000";
layers = (
{
layerId = "7EBE3D46-E53E-419E-A3EC-596DA2EA1E0D";
name = Regular;
shapes = (
{
closed = 1;
nodes = (
(306,729,l),
(284,729,l),
(11,0,l),
(134,0,l),
(296,454,l),
(446,0,l),
(570,0,l)
);
}
);
width = 590;
}
);
},
{
glyphname = _P;
lastChange = "2020-03-07 07:37:01 +0000";
layers = (
{
layerId = "7EBE3D46-E53E-419E-A3EC-596DA2EA1E0D";
name = Regular;
shapes = (
{
closed = 1;
nodes = (
(490,619.142,o),
(390,710,o),
(251,710,c),
(60,710,l),
(60,576,l),
(242,577,l),
(334,577,o),
(366,532,o),
(366,475,c),
(365,418,o),
(333.49,362,o),
(242,362,c),
(177.766,359.706,o),
(87.27,371.88,o),
(60,389.125,c),
(60,275,l),
(100,268,o),
(176,259,o),
(251,260,c),
(390,262,o),
(490,342.858,o),
(490,478,c),
(490,479,o),
(490,480,o),
(490,481,c),
(490,484,l)
);
}
);
width = 513;
}
);
},
{
glyphname = _x_;
lastChange = "2020-01-25 07:09:10 +0000";
layers = (
{
layerId = "7EBE3D46-E53E-419E-A3EC-596DA2EA1E0D";
name = Regular;
shapes = (
{
closed = 1;
nodes = (
(294,179,l),
(471,498,l),
(337,498,l),
(250,319,l),
(250,179,l)
);
}
);
width = 483;
}
);
},
{
glyphname = em_;
lastChange = "2020-03-07 09:23:06 +0000";
layers = (
{
layerId = "7EBE3D46-E53E-419E-A3EC-596DA2EA1E0D";
name = Regular;
shapes = (
{
closed = 1;
nodes = (
(613,598,l),
(612,707,l),
(612,728,l),
(568,744,l),
(351,546,l),
(360,398,l),
(384,395,l)
);
},
{
closed = 1;
nodes = (
(601,703,o),
(612,714,o),
(612,728,cs),
(612,741,o),
(601,753,o),
(587,753,cs),
(573,753,o),
(562,741,o),
(562,728,cs),
(562,714,o),
(573,703,o),
(587,703,cs)
);
},
{
closed = 1;
nodes = (
(380,388,o),
(391,399,o),
(391,413,cs),
(391,426,o),
(380,438,o),
(366,438,cs),
(352,438,o),
(341,426,o),
(341,413,cs),
(341,399,o),
(352,388,o),
(366,388,cs)
);
}
